%TF.GenerationSoftware,KiCad,Pcbnew,7.0.8-7.0.8~ubuntu23.04.1*%
%TF.CreationDate,2023-10-19T21:44:50+04:00*%
%TF.ProjectId,async_counter,6173796e-635f-4636-9f75-6e7465722e6b,rev?*%
%TF.SameCoordinates,Original*%
%TF.FileFunction,Copper,L2,Bot*%
%TF.FilePolarity,Positive*%
%FSLAX46Y46*%
G04 Gerber Fmt 4.6, Leading zero omitted, Abs format (unit mm)*
G04 Created by KiCad (PCBNEW 7.0.8-7.0.8~ubuntu23.04.1) date 2023-10-19 21:44:50*
%MOMM*%
%LPD*%
G01*
G04 APERTURE LIST*
G04 Aperture macros list*
%AMRoundRect*
0 Rectangle with rounded corners*
0 $1 Rounding radius*
0 $2 $3 $4 $5 $6 $7 $8 $9 X,Y pos of 4 corners*
0 Add a 4 corners polygon primitive as box body*
4,1,4,$2,$3,$4,$5,$6,$7,$8,$9,$2,$3,0*
0 Add four circle primitives for the rounded corners*
1,1,$1+$1,$2,$3*
1,1,$1+$1,$4,$5*
1,1,$1+$1,$6,$7*
1,1,$1+$1,$8,$9*
0 Add four rect primitives between the rounded corners*
20,1,$1+$1,$2,$3,$4,$5,0*
20,1,$1+$1,$4,$5,$6,$7,0*
20,1,$1+$1,$6,$7,$8,$9,0*
20,1,$1+$1,$8,$9,$2,$3,0*%
G04 Aperture macros list end*
%TA.AperFunction,ComponentPad*%
%ADD10R,1.600000X1.600000*%
%TD*%
%TA.AperFunction,ComponentPad*%
%ADD11O,1.600000X1.600000*%
%TD*%
%TA.AperFunction,ComponentPad*%
%ADD12R,1.700000X1.700000*%
%TD*%
%TA.AperFunction,ComponentPad*%
%ADD13O,1.700000X1.700000*%
%TD*%
%TA.AperFunction,SMDPad,CuDef*%
%ADD14RoundRect,0.250000X0.350000X0.450000X-0.350000X0.450000X-0.350000X-0.450000X0.350000X-0.450000X0*%
%TD*%
%TA.AperFunction,SMDPad,CuDef*%
%ADD15RoundRect,0.250000X0.337500X0.475000X-0.337500X0.475000X-0.337500X-0.475000X0.337500X-0.475000X0*%
%TD*%
%TA.AperFunction,ViaPad*%
%ADD16C,0.800000*%
%TD*%
%TA.AperFunction,Conductor*%
%ADD17C,0.250000*%
%TD*%
G04 APERTURE END LIST*
D10*
%TO.P,U1,1,J*%
%TO.N,VCC*%
X175260000Y-83820000D03*
D11*
%TO.P,U1,2,~{Q}*%
%TO.N,unconnected-(U1A-~{Q}-Pad2)*%
X175260000Y-86360000D03*
%TO.P,U1,3,Q*%
%TO.N,/D_{0}*%
X175260000Y-88900000D03*
%TO.P,U1,4,K*%
%TO.N,VCC*%
X175260000Y-91440000D03*
%TO.P,U1,5,Q*%
%TO.N,/D_{1}*%
X175260000Y-93980000D03*
%TO.P,U1,6,~{Q}*%
%TO.N,unconnected-(U1B-~{Q}-Pad6)*%
X175260000Y-96520000D03*
%TO.P,U1,7,GND*%
%TO.N,GND*%
X175260000Y-99060000D03*
%TO.P,U1,8,J*%
%TO.N,VCC*%
X182880000Y-99060000D03*
%TO.P,U1,9,C*%
%TO.N,/D_{0}*%
X182880000Y-96520000D03*
%TO.P,U1,10,~{R}*%
%TO.N,/~{CLR}*%
X182880000Y-93980000D03*
%TO.P,U1,11,K*%
%TO.N,VCC*%
X182880000Y-91440000D03*
%TO.P,U1,12,C*%
%TO.N,/CLK*%
X182880000Y-88900000D03*
%TO.P,U1,13,~{R}*%
%TO.N,/~{CLR}*%
X182880000Y-86360000D03*
%TO.P,U1,14,VCC*%
%TO.N,VCC*%
X182880000Y-83820000D03*
%TD*%
D10*
%TO.P,U2,1,J*%
%TO.N,VCC*%
X187960000Y-83820000D03*
D11*
%TO.P,U2,2,~{Q}*%
%TO.N,unconnected-(U2A-~{Q}-Pad2)*%
X187960000Y-86360000D03*
%TO.P,U2,3,Q*%
%TO.N,/D_{2}*%
X187960000Y-88900000D03*
%TO.P,U2,4,K*%
%TO.N,VCC*%
X187960000Y-91440000D03*
%TO.P,U2,5,Q*%
%TO.N,/D_{3}*%
X187960000Y-93980000D03*
%TO.P,U2,6,~{Q}*%
%TO.N,unconnected-(U2B-~{Q}-Pad6)*%
X187960000Y-96520000D03*
%TO.P,U2,7,GND*%
%TO.N,GND*%
X187960000Y-99060000D03*
%TO.P,U2,8,J*%
%TO.N,VCC*%
X195580000Y-99060000D03*
%TO.P,U2,9,C*%
%TO.N,/D_{2}*%
X195580000Y-96520000D03*
%TO.P,U2,10,~{R}*%
%TO.N,/~{CLR}*%
X195580000Y-93980000D03*
%TO.P,U2,11,K*%
%TO.N,VCC*%
X195580000Y-91440000D03*
%TO.P,U2,12,C*%
%TO.N,/D_{1}*%
X195580000Y-88900000D03*
%TO.P,U2,13,~{R}*%
%TO.N,/~{CLR}*%
X195580000Y-86360000D03*
%TO.P,U2,14,VCC*%
%TO.N,VCC*%
X195580000Y-83820000D03*
%TD*%
D12*
%TO.P,J2,1,Pin_1*%
%TO.N,/D_{0}*%
X181610000Y-101600000D03*
D13*
%TO.P,J2,2,Pin_2*%
%TO.N,/D_{1}*%
X184150000Y-101600000D03*
%TO.P,J2,3,Pin_3*%
%TO.N,/D_{2}*%
X186690000Y-101600000D03*
%TO.P,J2,4,Pin_4*%
%TO.N,/D_{3}*%
X189230000Y-101600000D03*
%TD*%
D14*
%TO.P,R4,1*%
%TO.N,/D_{3}*%
X192760000Y-91440000D03*
%TO.P,R4,2*%
%TO.N,Net-(D4-A)*%
X190760000Y-91440000D03*
%TD*%
D15*
%TO.P,C2,1*%
%TO.N,VCC*%
X192797500Y-86360000D03*
%TO.P,C2,2*%
%TO.N,GND*%
X190722500Y-86360000D03*
%TD*%
D14*
%TO.P,R3,1*%
%TO.N,/D_{2}*%
X192760000Y-96520000D03*
%TO.P,R3,2*%
%TO.N,Net-(D3-A)*%
X190760000Y-96520000D03*
%TD*%
%TO.P,R1,1*%
%TO.N,/D_{0}*%
X180060000Y-96520000D03*
%TO.P,R1,2*%
%TO.N,Net-(D1-A)*%
X178060000Y-96520000D03*
%TD*%
%TO.P,R2,1*%
%TO.N,/D_{1}*%
X180060000Y-91440000D03*
%TO.P,R2,2*%
%TO.N,Net-(D2-A)*%
X178060000Y-91440000D03*
%TD*%
D12*
%TO.P,J1,1,Pin_1*%
%TO.N,VCC*%
X181610000Y-81280000D03*
D13*
%TO.P,J1,2,Pin_2*%
%TO.N,/CLK*%
X184150000Y-81280000D03*
%TO.P,J1,3,Pin_3*%
%TO.N,/~{CLR}*%
X186690000Y-81280000D03*
%TO.P,J1,4,Pin_4*%
%TO.N,GND*%
X189230000Y-81280000D03*
%TD*%
D15*
%TO.P,C1,1*%
%TO.N,VCC*%
X180097500Y-86360000D03*
%TO.P,C1,2*%
%TO.N,GND*%
X178022500Y-86360000D03*
%TD*%
D16*
%TO.N,GND*%
X186486800Y-89001600D03*
X191262000Y-100076000D03*
X191770000Y-88900000D03*
X175260000Y-100838000D03*
X179070000Y-101600000D03*
X177292000Y-100838000D03*
X185928000Y-96393000D03*
X179832000Y-83312000D03*
X194564000Y-100584000D03*
X183896000Y-100076000D03*
X193040000Y-102616000D03*
%TO.N,Net-(D1-A)*%
X179324000Y-98552000D03*
%TO.N,Net-(D2-A)*%
X178054000Y-88900000D03*
%TO.N,Net-(D3-A)*%
X186110500Y-91440000D03*
%TO.N,Net-(D4-A)*%
X189865000Y-84455000D03*
%TO.N,/~{CLR}*%
X193675000Y-88265000D03*
X180340000Y-88900000D03*
X186436000Y-86868000D03*
X191770000Y-82550000D03*
%TO.N,/D_{2}*%
X190500000Y-94488000D03*
%TD*%
D17*
%TO.N,VCC*%
X184005000Y-92565000D02*
X182880000Y-91440000D01*
X192797500Y-85332500D02*
X194310000Y-83820000D01*
X192797500Y-86360000D02*
X192797500Y-85332500D01*
X194310000Y-83820000D02*
X195580000Y-83820000D01*
X184005000Y-97935000D02*
X184005000Y-92565000D01*
X194455000Y-90315000D02*
X194455000Y-84945000D01*
X195580000Y-91440000D02*
X194455000Y-90315000D01*
X182880000Y-91440000D02*
X181755000Y-90315000D01*
X194455000Y-84945000D02*
X195580000Y-83820000D01*
X175260000Y-91440000D02*
X176530000Y-90170000D01*
X181755000Y-90315000D02*
X181755000Y-84945000D01*
X181610000Y-83820000D02*
X182880000Y-83820000D01*
X182880000Y-99060000D02*
X184005000Y-97935000D01*
X180097500Y-86360000D02*
X180097500Y-85332500D01*
X180097500Y-85332500D02*
X181610000Y-83820000D01*
X176530000Y-90170000D02*
X176530000Y-85090000D01*
X176530000Y-85090000D02*
X175260000Y-83820000D01*
X181755000Y-84945000D02*
X182880000Y-83820000D01*
%TO.N,GND*%
X179832000Y-83312000D02*
X178022500Y-85121500D01*
X178022500Y-85121500D02*
X178022500Y-86360000D01*
%TO.N,Net-(D1-A)*%
X179324000Y-98552000D02*
X178060000Y-97288000D01*
X178060000Y-97288000D02*
X178060000Y-96520000D01*
%TO.N,Net-(D2-A)*%
X178054000Y-88900000D02*
X178060000Y-88906000D01*
X178060000Y-88906000D02*
X178060000Y-91440000D01*
%TO.N,Net-(D3-A)*%
X186690000Y-92710000D02*
X186690000Y-94488000D01*
X187307000Y-95105000D02*
X189345000Y-95105000D01*
X186690000Y-94488000D02*
X187307000Y-95105000D01*
X186110500Y-92130500D02*
X186690000Y-92710000D01*
X186110500Y-91440000D02*
X186110500Y-92130500D01*
X189345000Y-95105000D02*
X190760000Y-96520000D01*
%TO.N,Net-(D4-A)*%
X189230000Y-85090000D02*
X189865000Y-84455000D01*
X189230000Y-89910000D02*
X189230000Y-86360000D01*
X189230000Y-86360000D02*
X189230000Y-85090000D01*
X190760000Y-91440000D02*
X189230000Y-89910000D01*
%TO.N,/CLK*%
X184150000Y-87630000D02*
X182880000Y-88900000D01*
X184150000Y-81280000D02*
X184150000Y-87630000D01*
%TO.N,/~{CLR}*%
X182880000Y-93980000D02*
X181305000Y-92405000D01*
X186690000Y-86106000D02*
X186690000Y-81280000D01*
X181305000Y-89865000D02*
X180340000Y-88900000D01*
X186436000Y-86360000D02*
X186690000Y-86106000D01*
X193685000Y-88275000D02*
X193685000Y-92085000D01*
X186436000Y-86868000D02*
X186436000Y-86360000D01*
X193685000Y-92085000D02*
X195580000Y-93980000D01*
X181305000Y-92405000D02*
X181305000Y-89865000D01*
X187960000Y-82550000D02*
X191770000Y-82550000D01*
X193675000Y-88265000D02*
X193685000Y-88275000D01*
X186690000Y-81280000D02*
X187960000Y-82550000D01*
%TO.N,/D_{0}*%
X181610000Y-101600000D02*
X181610000Y-97790000D01*
X180060000Y-96520000D02*
X182880000Y-96520000D01*
X181610000Y-97790000D02*
X182880000Y-96520000D01*
%TO.N,/D_{1}*%
X178825305Y-93980000D02*
X175260000Y-93980000D01*
X180060000Y-91440000D02*
X180060000Y-92745305D01*
X180060000Y-92745305D02*
X178825305Y-93980000D01*
%TO.N,/D_{2}*%
X192760000Y-96520000D02*
X195580000Y-96520000D01*
X192760000Y-96520000D02*
X192532000Y-96520000D01*
X188468000Y-100584000D02*
X187706000Y-100584000D01*
X192532000Y-96520000D02*
X188468000Y-100584000D01*
X187706000Y-100584000D02*
X186690000Y-101600000D01*
X190500000Y-94488000D02*
X190728000Y-94488000D01*
X190728000Y-94488000D02*
X192760000Y-96520000D01*
%TO.N,/D_{3}*%
X190982000Y-93218000D02*
X188722000Y-93218000D01*
X188722000Y-93218000D02*
X187960000Y-93980000D01*
X192760000Y-91440000D02*
X190982000Y-93218000D01*
%TD*%
%TA.AperFunction,Conductor*%
%TO.N,GND*%
G36*
X180837727Y-92835878D02*
G01*
X180865580Y-92853276D01*
X180881309Y-92866288D01*
X180885620Y-92870210D01*
X181536628Y-93521219D01*
X181580586Y-93565177D01*
X181614071Y-93626500D01*
X181612680Y-93684949D01*
X181594367Y-93753296D01*
X181594364Y-93753313D01*
X181574532Y-93979999D01*
X181574532Y-93980001D01*
X181594364Y-94206686D01*
X181594366Y-94206697D01*
X181653258Y-94426488D01*
X181653261Y-94426497D01*
X181749431Y-94632732D01*
X181749432Y-94632734D01*
X181879954Y-94819141D01*
X182040858Y-94980045D01*
X182040861Y-94980047D01*
X182227266Y-95110568D01*
X182285275Y-95137618D01*
X182337714Y-95183791D01*
X182356866Y-95250984D01*
X182336650Y-95317865D01*
X182285275Y-95362382D01*
X182227267Y-95389431D01*
X182227265Y-95389432D01*
X182040858Y-95519954D01*
X181879954Y-95680858D01*
X181767387Y-95841623D01*
X181712811Y-95885248D01*
X181665812Y-95894500D01*
X181232017Y-95894500D01*
X181164978Y-95874815D01*
X181119223Y-95822011D01*
X181114311Y-95809505D01*
X181094814Y-95750666D01*
X181002712Y-95601344D01*
X180878656Y-95477288D01*
X180736218Y-95389432D01*
X180729336Y-95385187D01*
X180729331Y-95385185D01*
X180727862Y-95384698D01*
X180562797Y-95330001D01*
X180562795Y-95330000D01*
X180460010Y-95319500D01*
X179659998Y-95319500D01*
X179659980Y-95319501D01*
X179557203Y-95330000D01*
X179557200Y-95330001D01*
X179390668Y-95385185D01*
X179390663Y-95385187D01*
X179241342Y-95477289D01*
X179147681Y-95570951D01*
X179086358Y-95604436D01*
X179016666Y-95599452D01*
X178972319Y-95570951D01*
X178878657Y-95477289D01*
X178878656Y-95477288D01*
X178736218Y-95389432D01*
X178729336Y-95385187D01*
X178729331Y-95385185D01*
X178727862Y-95384698D01*
X178562797Y-95330001D01*
X178562795Y-95330000D01*
X178460010Y-95319500D01*
X177659998Y-95319500D01*
X177659980Y-95319501D01*
X177557203Y-95330000D01*
X177557200Y-95330001D01*
X177390668Y-95385185D01*
X177390663Y-95385187D01*
X177241342Y-95477289D01*
X177117289Y-95601342D01*
X177025187Y-95750663D01*
X177025186Y-95750666D01*
X176970001Y-95917203D01*
X176970001Y-95917204D01*
X176970000Y-95917204D01*
X176959500Y-96019983D01*
X176959500Y-97020001D01*
X176959501Y-97020019D01*
X176970000Y-97122796D01*
X176970001Y-97122799D01*
X177025185Y-97289331D01*
X177025186Y-97289334D01*
X177117288Y-97438656D01*
X177241344Y-97562712D01*
X177390666Y-97654814D01*
X177557203Y-97709999D01*
X177557206Y-97709999D01*
X177563819Y-97711415D01*
X177563483Y-97712983D01*
X177620510Y-97736244D01*
X177622270Y-97737674D01*
X177636310Y-97749289D01*
X177640632Y-97753222D01*
X178385038Y-98497629D01*
X178418523Y-98558952D01*
X178420678Y-98572348D01*
X178425004Y-98613502D01*
X178438326Y-98740256D01*
X178438327Y-98740259D01*
X178496818Y-98920277D01*
X178496821Y-98920284D01*
X178591467Y-99084216D01*
X178682347Y-99185148D01*
X178718129Y-99224888D01*
X178871265Y-99336148D01*
X178871270Y-99336151D01*
X179044192Y-99413142D01*
X179044197Y-99413144D01*
X179229354Y-99452500D01*
X179229355Y-99452500D01*
X179418644Y-99452500D01*
X179418646Y-99452500D01*
X179603803Y-99413144D01*
X179776730Y-99336151D01*
X179929871Y-99224888D01*
X180056533Y-99084216D01*
X180151179Y-98920284D01*
X180209674Y-98740256D01*
X180229460Y-98552000D01*
X180209674Y-98363744D01*
X180151179Y-98183716D01*
X180056533Y-98019784D01*
X179975571Y-97929867D01*
X179973414Y-97927471D01*
X179943184Y-97864480D01*
X179951809Y-97795144D01*
X179996551Y-97741479D01*
X180063203Y-97720521D01*
X180065564Y-97720499D01*
X180460002Y-97720499D01*
X180460008Y-97720499D01*
X180562797Y-97709999D01*
X180729334Y-97654814D01*
X180795404Y-97614061D01*
X180862796Y-97595622D01*
X180929459Y-97616545D01*
X180974229Y-97670187D01*
X180984500Y-97719601D01*
X180984500Y-97731016D01*
X180982973Y-97750415D01*
X180979840Y-97770194D01*
X180979840Y-97770195D01*
X180984225Y-97816583D01*
X180984500Y-97822421D01*
X180984500Y-100125500D01*
X180964815Y-100192539D01*
X180912011Y-100238294D01*
X180860501Y-100249500D01*
X180712130Y-100249500D01*
X180712123Y-100249501D01*
X180652516Y-100255908D01*
X180517671Y-100306202D01*
X180517664Y-100306206D01*
X180402455Y-100392452D01*
X180402452Y-100392455D01*
X180316206Y-100507664D01*
X180316202Y-100507671D01*
X180265908Y-100642517D01*
X180259501Y-100702116D01*
X180259500Y-100702135D01*
X180259500Y-102497870D01*
X180259501Y-102497876D01*
X180265908Y-102557483D01*
X180316202Y-102692328D01*
X180316206Y-102692335D01*
X180402452Y-102807544D01*
X180402455Y-102807547D01*
X180517664Y-102893793D01*
X180517671Y-102893797D01*
X180652517Y-102944091D01*
X180652516Y-102944091D01*
X180659444Y-102944835D01*
X180712127Y-102950500D01*
X182507872Y-102950499D01*
X182567483Y-102944091D01*
X182702331Y-102893796D01*
X182817546Y-102807546D01*
X182903796Y-102692331D01*
X182952810Y-102560916D01*
X182994681Y-102504984D01*
X183060145Y-102480566D01*
X183128418Y-102495417D01*
X183156673Y-102516569D01*
X183278599Y-102638495D01*
X183375384Y-102706265D01*
X183472165Y-102774032D01*
X183472167Y-102774033D01*
X183472170Y-102774035D01*
X183686337Y-102873903D01*
X183914592Y-102935063D01*
X184091034Y-102950500D01*
X184149999Y-102955659D01*
X184150000Y-102955659D01*
X184150001Y-102955659D01*
X184208966Y-102950500D01*
X184385408Y-102935063D01*
X184613663Y-102873903D01*
X184827830Y-102774035D01*
X185021401Y-102638495D01*
X185188495Y-102471401D01*
X185318425Y-102285842D01*
X185373002Y-102242217D01*
X185442500Y-102235023D01*
X185504855Y-102266546D01*
X185521575Y-102285842D01*
X185651500Y-102471395D01*
X185651505Y-102471401D01*
X185818599Y-102638495D01*
X185915384Y-102706265D01*
X186012165Y-102774032D01*
X186012167Y-102774033D01*
X186012170Y-102774035D01*
X186226337Y-102873903D01*
X186454592Y-102935063D01*
X186631034Y-102950500D01*
X186689999Y-102955659D01*
X186690000Y-102955659D01*
X186690001Y-102955659D01*
X186748966Y-102950500D01*
X186925408Y-102935063D01*
X187153663Y-102873903D01*
X187367830Y-102774035D01*
X187561401Y-102638495D01*
X187728495Y-102471401D01*
X187858425Y-102285842D01*
X187913002Y-102242217D01*
X187982500Y-102235023D01*
X188044855Y-102266546D01*
X188061575Y-102285842D01*
X188191500Y-102471395D01*
X188191505Y-102471401D01*
X188358599Y-102638495D01*
X188455384Y-102706265D01*
X188552165Y-102774032D01*
X188552167Y-102774033D01*
X188552170Y-102774035D01*
X188766337Y-102873903D01*
X188994592Y-102935063D01*
X189171034Y-102950500D01*
X189229999Y-102955659D01*
X189230000Y-102955659D01*
X189230001Y-102955659D01*
X189288966Y-102950500D01*
X189465408Y-102935063D01*
X189693663Y-102873903D01*
X189907830Y-102774035D01*
X190101401Y-102638495D01*
X190268495Y-102471401D01*
X190404035Y-102277830D01*
X190503903Y-102063663D01*
X190565063Y-101835408D01*
X190585659Y-101600000D01*
X190565063Y-101364592D01*
X190503903Y-101136337D01*
X190404035Y-100922171D01*
X190398425Y-100914158D01*
X190268494Y-100728597D01*
X190101402Y-100561506D01*
X190101399Y-100561504D01*
X190024518Y-100507671D01*
X189907834Y-100425967D01*
X189797438Y-100374488D01*
X189744999Y-100328315D01*
X189725848Y-100261121D01*
X189746064Y-100194240D01*
X189762158Y-100174430D01*
X192187764Y-97748825D01*
X192249085Y-97715342D01*
X192288046Y-97713150D01*
X192359991Y-97720500D01*
X193160008Y-97720499D01*
X193160016Y-97720498D01*
X193160019Y-97720498D01*
X193223659Y-97713997D01*
X193262797Y-97709999D01*
X193429334Y-97654814D01*
X193578656Y-97562712D01*
X193702712Y-97438656D01*
X193794814Y-97289334D01*
X193814311Y-97230493D01*
X193854084Y-97173051D01*
X193918600Y-97146228D01*
X193932017Y-97145500D01*
X194365812Y-97145500D01*
X194432851Y-97165185D01*
X194467387Y-97198377D01*
X194579954Y-97359141D01*
X194740858Y-97520045D01*
X194740861Y-97520047D01*
X194927266Y-97650568D01*
X194969339Y-97670187D01*
X194985275Y-97677618D01*
X195037714Y-97723791D01*
X195056866Y-97790984D01*
X195036650Y-97857865D01*
X194985275Y-97902381D01*
X194984685Y-97902657D01*
X194927267Y-97929431D01*
X194927265Y-97929432D01*
X194740858Y-98059954D01*
X194579954Y-98220858D01*
X194449432Y-98407265D01*
X194449431Y-98407267D01*
X194353261Y-98613502D01*
X194353258Y-98613511D01*
X194294366Y-98833302D01*
X194294364Y-98833313D01*
X194274532Y-99059998D01*
X194274532Y-99060001D01*
X194294364Y-99286686D01*
X194294366Y-99286697D01*
X194353258Y-99506488D01*
X194353261Y-99506497D01*
X194449431Y-99712732D01*
X194449432Y-99712734D01*
X194579954Y-99899141D01*
X194740858Y-100060045D01*
X194740861Y-100060047D01*
X194927266Y-100190568D01*
X195133504Y-100286739D01*
X195133509Y-100286740D01*
X195133511Y-100286741D01*
X195157792Y-100293247D01*
X195353308Y-100345635D01*
X195515230Y-100359801D01*
X195579998Y-100365468D01*
X195580000Y-100365468D01*
X195580002Y-100365468D01*
X195642019Y-100360042D01*
X195806692Y-100345635D01*
X196026496Y-100286739D01*
X196232734Y-100190568D01*
X196404378Y-100070382D01*
X196470583Y-100048056D01*
X196538350Y-100065066D01*
X196586163Y-100116015D01*
X196599500Y-100171958D01*
X196599500Y-101597786D01*
X196599342Y-101602210D01*
X196583292Y-101826615D01*
X196580774Y-101844127D01*
X196534367Y-102057456D01*
X196529383Y-102074432D01*
X196453084Y-102278997D01*
X196445734Y-102295090D01*
X196341103Y-102486707D01*
X196331538Y-102501590D01*
X196200702Y-102676367D01*
X196189116Y-102689738D01*
X196034738Y-102844116D01*
X196021367Y-102855702D01*
X195846590Y-102986538D01*
X195831707Y-102996103D01*
X195640090Y-103100734D01*
X195623997Y-103108084D01*
X195419432Y-103184383D01*
X195402456Y-103189367D01*
X195189127Y-103235774D01*
X195171615Y-103238292D01*
X194967359Y-103252900D01*
X194947208Y-103254342D01*
X194942786Y-103254500D01*
X175897214Y-103254500D01*
X175892791Y-103254342D01*
X175870144Y-103252722D01*
X175668384Y-103238292D01*
X175650872Y-103235774D01*
X175437543Y-103189367D01*
X175420567Y-103184383D01*
X175216002Y-103108084D01*
X175199909Y-103100734D01*
X175008292Y-102996103D01*
X174993409Y-102986538D01*
X174818632Y-102855702D01*
X174805261Y-102844116D01*
X174650883Y-102689738D01*
X174639297Y-102676367D01*
X174508461Y-102501590D01*
X174498896Y-102486707D01*
X174394265Y-102295090D01*
X174386918Y-102279004D01*
X174310613Y-102074424D01*
X174305634Y-102057465D01*
X174259224Y-101844121D01*
X174256707Y-101826615D01*
X174240658Y-101602210D01*
X174240500Y-101597786D01*
X174240500Y-100171346D01*
X174260185Y-100104307D01*
X174312989Y-100058552D01*
X174382147Y-100048608D01*
X174435624Y-100069772D01*
X174607510Y-100190129D01*
X174607516Y-100190133D01*
X174813673Y-100286265D01*
X174813682Y-100286269D01*
X175009999Y-100338872D01*
X175010000Y-100338871D01*
X175010000Y-99375686D01*
X175021955Y-99387641D01*
X175134852Y-99445165D01*
X175228519Y-99460000D01*
X175291481Y-99460000D01*
X175385148Y-99445165D01*
X175498045Y-99387641D01*
X175510000Y-99375686D01*
X175510000Y-100338872D01*
X175706317Y-100286269D01*
X175706326Y-100286265D01*
X175912482Y-100190134D01*
X176098820Y-100059657D01*
X176259657Y-99898820D01*
X176390134Y-99712482D01*
X176486265Y-99506326D01*
X176486269Y-99506317D01*
X176538872Y-99310000D01*
X175575686Y-99310000D01*
X175587641Y-99298045D01*
X175645165Y-99185148D01*
X175664986Y-99060000D01*
X175645165Y-98934852D01*
X175587641Y-98821955D01*
X175575686Y-98810000D01*
X176538872Y-98810000D01*
X176538872Y-98809999D01*
X176486269Y-98613682D01*
X176486265Y-98613673D01*
X176390134Y-98407517D01*
X176259657Y-98221179D01*
X176098820Y-98060342D01*
X175912482Y-97929865D01*
X175854133Y-97902657D01*
X175801694Y-97856484D01*
X175782542Y-97789291D01*
X175802758Y-97722410D01*
X175854129Y-97677895D01*
X175912734Y-97650568D01*
X176099139Y-97520047D01*
X176260047Y-97359139D01*
X176390568Y-97172734D01*
X176486739Y-96966496D01*
X176545635Y-96746692D01*
X176565468Y-96520000D01*
X176545635Y-96293308D01*
X176486739Y-96073504D01*
X176390568Y-95867266D01*
X176260047Y-95680861D01*
X176260045Y-95680858D01*
X176099141Y-95519954D01*
X175912734Y-95389432D01*
X175912728Y-95389429D01*
X175854725Y-95362382D01*
X175802285Y-95316210D01*
X175783133Y-95249017D01*
X175803348Y-95182135D01*
X175854725Y-95137618D01*
X175912734Y-95110568D01*
X176099139Y-94980047D01*
X176260047Y-94819139D01*
X176372613Y-94658377D01*
X176427189Y-94614752D01*
X176474188Y-94605500D01*
X178742562Y-94605500D01*
X178758182Y-94607224D01*
X178758209Y-94606939D01*
X178765965Y-94607671D01*
X178765972Y-94607673D01*
X178835119Y-94605500D01*
X178864655Y-94605500D01*
X178871533Y-94604630D01*
X178877346Y-94604172D01*
X178923932Y-94602709D01*
X178943174Y-94597117D01*
X178962217Y-94593174D01*
X178982097Y-94590664D01*
X179025427Y-94573507D01*
X179030951Y-94571617D01*
X179034701Y-94570527D01*
X179075695Y-94558618D01*
X179092934Y-94548422D01*
X179110408Y-94539862D01*
X179129032Y-94532488D01*
X179129032Y-94532487D01*
X179129037Y-94532486D01*
X179166754Y-94505082D01*
X179171610Y-94501892D01*
X179211725Y-94478170D01*
X179225894Y-94463999D01*
X179240684Y-94451368D01*
X179256892Y-94439594D01*
X179286604Y-94403676D01*
X179290517Y-94399376D01*
X180443787Y-93246107D01*
X180456042Y-93236291D01*
X180455859Y-93236069D01*
X180461866Y-93231097D01*
X180461877Y-93231091D01*
X180492775Y-93198187D01*
X180509227Y-93180669D01*
X180519671Y-93170223D01*
X180530120Y-93159776D01*
X180534379Y-93154283D01*
X180538152Y-93149866D01*
X180570062Y-93115887D01*
X180579713Y-93098329D01*
X180590396Y-93082066D01*
X180602673Y-93066241D01*
X180621185Y-93023458D01*
X180623738Y-93018246D01*
X180646197Y-92977397D01*
X180651180Y-92957985D01*
X180657481Y-92939585D01*
X180665437Y-92921201D01*
X180665438Y-92921194D01*
X180667463Y-92914228D01*
X180705068Y-92855341D01*
X180768540Y-92826133D01*
X180837727Y-92835878D01*
G37*
%TD.AperFunction*%
%TA.AperFunction,Conductor*%
G36*
X185504855Y-81946546D02*
G01*
X185521575Y-81965842D01*
X185651505Y-82151401D01*
X185818599Y-82318495D01*
X186011624Y-82453653D01*
X186055248Y-82508228D01*
X186064500Y-82555226D01*
X186064500Y-85792770D01*
X186044815Y-85859809D01*
X186030892Y-85877654D01*
X185986772Y-85924636D01*
X185965889Y-85945519D01*
X185965877Y-85945532D01*
X185961621Y-85951017D01*
X185957837Y-85955447D01*
X185925937Y-85989418D01*
X185925936Y-85989420D01*
X185916284Y-86006976D01*
X185905610Y-86023226D01*
X185893329Y-86039061D01*
X185893324Y-86039068D01*
X185874815Y-86081838D01*
X185872245Y-86087084D01*
X185849802Y-86127908D01*
X185844820Y-86147311D01*
X185838519Y-86165712D01*
X185829856Y-86185732D01*
X185808205Y-86219460D01*
X185703464Y-86335787D01*
X185608821Y-86499715D01*
X185608818Y-86499722D01*
X185550327Y-86679740D01*
X185550326Y-86679744D01*
X185530540Y-86868000D01*
X185550326Y-87056256D01*
X185550327Y-87056259D01*
X185608818Y-87236277D01*
X185608821Y-87236284D01*
X185703467Y-87400216D01*
X185810743Y-87519358D01*
X185830129Y-87540888D01*
X185983265Y-87652148D01*
X185983270Y-87652151D01*
X186156192Y-87729142D01*
X186156197Y-87729144D01*
X186341354Y-87768500D01*
X186341355Y-87768500D01*
X186530644Y-87768500D01*
X186530646Y-87768500D01*
X186715803Y-87729144D01*
X186888730Y-87652151D01*
X187041871Y-87540888D01*
X187098877Y-87477576D01*
X187158359Y-87440930D01*
X187228216Y-87442259D01*
X187262144Y-87458973D01*
X187307266Y-87490568D01*
X187365275Y-87517618D01*
X187417714Y-87563791D01*
X187436866Y-87630984D01*
X187416650Y-87697865D01*
X187365275Y-87742382D01*
X187307267Y-87769431D01*
X187307265Y-87769432D01*
X187120858Y-87899954D01*
X186959954Y-88060858D01*
X186829432Y-88247265D01*
X186829431Y-88247267D01*
X186733261Y-88453502D01*
X186733258Y-88453511D01*
X186674366Y-88673302D01*
X186674364Y-88673313D01*
X186654532Y-88899998D01*
X186654532Y-88900001D01*
X186674364Y-89126686D01*
X186674366Y-89126697D01*
X186733258Y-89346488D01*
X186733261Y-89346497D01*
X186829431Y-89552732D01*
X186829432Y-89552734D01*
X186959954Y-89739141D01*
X187120858Y-89900045D01*
X187120861Y-89900047D01*
X187307266Y-90030568D01*
X187365275Y-90057618D01*
X187417714Y-90103791D01*
X187436866Y-90170984D01*
X187416650Y-90237865D01*
X187365275Y-90282382D01*
X187307267Y-90309431D01*
X187307265Y-90309432D01*
X187120858Y-90439954D01*
X186959953Y-90600859D01*
X186873038Y-90724988D01*
X186818461Y-90768613D01*
X186748963Y-90775807D01*
X186698578Y-90754184D01*
X186570486Y-90661121D01*
X186563230Y-90655849D01*
X186563228Y-90655848D01*
X186563229Y-90655848D01*
X186390307Y-90578857D01*
X186390302Y-90578855D01*
X186210236Y-90540582D01*
X186205146Y-90539500D01*
X186015854Y-90539500D01*
X186010764Y-90540582D01*
X185830697Y-90578855D01*
X185830692Y-90578857D01*
X185657770Y-90655848D01*
X185657765Y-90655851D01*
X185504629Y-90767111D01*
X185377966Y-90907785D01*
X185283321Y-91071715D01*
X185283318Y-91071722D01*
X185237314Y-91213309D01*
X185224826Y-91251744D01*
X185205040Y-91440000D01*
X185224826Y-91628256D01*
X185224827Y-91628259D01*
X185283318Y-91808277D01*
X185283321Y-91808284D01*
X185377967Y-91972216D01*
X185430326Y-92030366D01*
X185453033Y-92055585D01*
X185483263Y-92118576D01*
X185484821Y-92134643D01*
X185485000Y-92140305D01*
X185485000Y-92169843D01*
X185485001Y-92169860D01*
X185485868Y-92176731D01*
X185486326Y-92182550D01*
X185487790Y-92229124D01*
X185487791Y-92229127D01*
X185493380Y-92248367D01*
X185497324Y-92267411D01*
X185499836Y-92287292D01*
X185516990Y-92330619D01*
X185518882Y-92336147D01*
X185531881Y-92380888D01*
X185542080Y-92398134D01*
X185550636Y-92415600D01*
X185558014Y-92434232D01*
X185585398Y-92471923D01*
X185588606Y-92476807D01*
X185612327Y-92516916D01*
X185612333Y-92516924D01*
X185626490Y-92531080D01*
X185639127Y-92545875D01*
X185650906Y-92562087D01*
X185683848Y-92589339D01*
X185686809Y-92591788D01*
X185691120Y-92595710D01*
X185860519Y-92765109D01*
X186028181Y-92932771D01*
X186061666Y-92994094D01*
X186064500Y-93020452D01*
X186064500Y-94405255D01*
X186062775Y-94420872D01*
X186063061Y-94420899D01*
X186062326Y-94428665D01*
X186064500Y-94497814D01*
X186064500Y-94527343D01*
X186064501Y-94527360D01*
X186065368Y-94534231D01*
X186065826Y-94540050D01*
X186067290Y-94586624D01*
X186067291Y-94586627D01*
X186072880Y-94605867D01*
X186076824Y-94624911D01*
X186077813Y-94632732D01*
X186079336Y-94644791D01*
X186096490Y-94688119D01*
X186098382Y-94693647D01*
X186111381Y-94738388D01*
X186121580Y-94755634D01*
X186130138Y-94773103D01*
X186137514Y-94791732D01*
X186164898Y-94829423D01*
X186168106Y-94834307D01*
X186191827Y-94874416D01*
X186191833Y-94874424D01*
X186205990Y-94888580D01*
X186218628Y-94903376D01*
X186230405Y-94919586D01*
X186230406Y-94919587D01*
X186266309Y-94949288D01*
X186270620Y-94953210D01*
X186566427Y-95249017D01*
X186806194Y-95488784D01*
X186816019Y-95501048D01*
X186816240Y-95500866D01*
X186821210Y-95506873D01*
X186821213Y-95506876D01*
X186821214Y-95506877D01*
X186871651Y-95554241D01*
X186888361Y-95570951D01*
X186892532Y-95575122D01*
X186895458Y-95577702D01*
X186894472Y-95578819D01*
X186931792Y-95630460D01*
X186935604Y-95700225D01*
X186916474Y-95742955D01*
X186829431Y-95867267D01*
X186733261Y-96073502D01*
X186733258Y-96073511D01*
X186674366Y-96293302D01*
X186674364Y-96293313D01*
X186654532Y-96519998D01*
X186654532Y-96520001D01*
X186674364Y-96746686D01*
X186674366Y-96746697D01*
X186733258Y-96966488D01*
X186733261Y-96966497D01*
X186829431Y-97172732D01*
X186829432Y-97172734D01*
X186959954Y-97359141D01*
X187120858Y-97520045D01*
X187120861Y-97520047D01*
X187307266Y-97650568D01*
X187365865Y-97677893D01*
X187418305Y-97724065D01*
X187437457Y-97791258D01*
X187417242Y-97858139D01*
X187365867Y-97902657D01*
X187307515Y-97929867D01*
X187121179Y-98060342D01*
X186960342Y-98221179D01*
X186829865Y-98407517D01*
X186733734Y-98613673D01*
X186733730Y-98613682D01*
X186681127Y-98809999D01*
X186681128Y-98810000D01*
X187644314Y-98810000D01*
X187632359Y-98821955D01*
X187574835Y-98934852D01*
X187555014Y-99060000D01*
X187574835Y-99185148D01*
X187632359Y-99298045D01*
X187644314Y-99310000D01*
X186681128Y-99310000D01*
X186733730Y-99506317D01*
X186733734Y-99506326D01*
X186829865Y-99712482D01*
X186960339Y-99898816D01*
X187121182Y-100059660D01*
X187132209Y-100067381D01*
X187175835Y-100121957D01*
X187183030Y-100191455D01*
X187151509Y-100253811D01*
X187148769Y-100256639D01*
X187145646Y-100259762D01*
X187084323Y-100293247D01*
X187025872Y-100291856D01*
X186925413Y-100264938D01*
X186925403Y-100264936D01*
X186690001Y-100244341D01*
X186689999Y-100244341D01*
X186454596Y-100264936D01*
X186454586Y-100264938D01*
X186226344Y-100326094D01*
X186226335Y-100326098D01*
X186012171Y-100425964D01*
X186012169Y-100425965D01*
X185818597Y-100561505D01*
X185651505Y-100728597D01*
X185521575Y-100914158D01*
X185466998Y-100957783D01*
X185397500Y-100964977D01*
X185335145Y-100933454D01*
X185318425Y-100914158D01*
X185188494Y-100728597D01*
X185021402Y-100561506D01*
X185021399Y-100561504D01*
X184944518Y-100507671D01*
X184827834Y-100425967D01*
X184827830Y-100425965D01*
X184824197Y-100424271D01*
X184613663Y-100326097D01*
X184613659Y-100326096D01*
X184613655Y-100326094D01*
X184385413Y-100264938D01*
X184385403Y-100264936D01*
X184150001Y-100244341D01*
X184149999Y-100244341D01*
X183914596Y-100264936D01*
X183914583Y-100264939D01*
X183803258Y-100294767D01*
X183733408Y-100293104D01*
X183675546Y-100253940D01*
X183648043Y-100189711D01*
X183659630Y-100120809D01*
X183700044Y-100073417D01*
X183719139Y-100060047D01*
X183880047Y-99899139D01*
X184010568Y-99712734D01*
X184106739Y-99506496D01*
X184165635Y-99286692D01*
X184185468Y-99060000D01*
X184165635Y-98833308D01*
X184147318Y-98764948D01*
X184148981Y-98695103D01*
X184179410Y-98645179D01*
X184388788Y-98435801D01*
X184401042Y-98425986D01*
X184400859Y-98425764D01*
X184406866Y-98420792D01*
X184406877Y-98420786D01*
X184437775Y-98387882D01*
X184454227Y-98370364D01*
X184464671Y-98359918D01*
X184475120Y-98349471D01*
X184479379Y-98343978D01*
X184483152Y-98339561D01*
X184515062Y-98305582D01*
X184524713Y-98288024D01*
X184535396Y-98271761D01*
X184547673Y-98255936D01*
X184566185Y-98213153D01*
X184568738Y-98207941D01*
X184591197Y-98167092D01*
X184596180Y-98147680D01*
X184602481Y-98129280D01*
X184610437Y-98110896D01*
X184617729Y-98064852D01*
X184618906Y-98059171D01*
X184630500Y-98014019D01*
X184630500Y-97993983D01*
X184632027Y-97974582D01*
X184635160Y-97954804D01*
X184630775Y-97908415D01*
X184630500Y-97902577D01*
X184630500Y-92647737D01*
X184632224Y-92632123D01*
X184631938Y-92632096D01*
X184632672Y-92624333D01*
X184631759Y-92595290D01*
X184630500Y-92555203D01*
X184630500Y-92525650D01*
X184629629Y-92518759D01*
X184629172Y-92512945D01*
X184627709Y-92466372D01*
X184622122Y-92447144D01*
X184618174Y-92428084D01*
X184615664Y-92408208D01*
X184598507Y-92364875D01*
X184596619Y-92359359D01*
X184583619Y-92314612D01*
X184573418Y-92297363D01*
X184564860Y-92279894D01*
X184557486Y-92261268D01*
X184557483Y-92261264D01*
X184557483Y-92261263D01*
X184530098Y-92223571D01*
X184526890Y-92218687D01*
X184503172Y-92178582D01*
X184503163Y-92178571D01*
X184489005Y-92164413D01*
X184476370Y-92149620D01*
X184466982Y-92136700D01*
X184464594Y-92133413D01*
X184428693Y-92103713D01*
X184424381Y-92099790D01*
X184179413Y-91854822D01*
X184145928Y-91793499D01*
X184147319Y-91735048D01*
X184149500Y-91726908D01*
X184165635Y-91666692D01*
X184185468Y-91440000D01*
X184165635Y-91213308D01*
X184106739Y-90993504D01*
X184010568Y-90787266D01*
X183880047Y-90600861D01*
X183880045Y-90600858D01*
X183719141Y-90439954D01*
X183532734Y-90309432D01*
X183532728Y-90309429D01*
X183504830Y-90296420D01*
X183474724Y-90282381D01*
X183422285Y-90236210D01*
X183403133Y-90169017D01*
X183423348Y-90102135D01*
X183474725Y-90057618D01*
X183532734Y-90030568D01*
X183719139Y-89900047D01*
X183880047Y-89739139D01*
X184010568Y-89552734D01*
X184106739Y-89346496D01*
X184165635Y-89126692D01*
X184185468Y-88900000D01*
X184184752Y-88891821D01*
X184179674Y-88833778D01*
X184165635Y-88673308D01*
X184147318Y-88604948D01*
X184148981Y-88535103D01*
X184179410Y-88485179D01*
X184533788Y-88130801D01*
X184546042Y-88120986D01*
X184545859Y-88120764D01*
X184551866Y-88115792D01*
X184551877Y-88115786D01*
X184588540Y-88076744D01*
X184599227Y-88065364D01*
X184609671Y-88054918D01*
X184620120Y-88044471D01*
X184624379Y-88038978D01*
X184628152Y-88034561D01*
X184660062Y-88000582D01*
X184669713Y-87983024D01*
X184680396Y-87966761D01*
X184692673Y-87950936D01*
X184711185Y-87908153D01*
X184713738Y-87902941D01*
X184736197Y-87862092D01*
X184741180Y-87842680D01*
X184747481Y-87824280D01*
X184755437Y-87805896D01*
X184762729Y-87759852D01*
X184763906Y-87754171D01*
X184775500Y-87709019D01*
X184775500Y-87688983D01*
X184777027Y-87669582D01*
X184780160Y-87649804D01*
X184775775Y-87603415D01*
X184775500Y-87597577D01*
X184775500Y-82555226D01*
X184795185Y-82488187D01*
X184828374Y-82453654D01*
X185021401Y-82318495D01*
X185188495Y-82151401D01*
X185318425Y-81965842D01*
X185373002Y-81922217D01*
X185442500Y-81915023D01*
X185504855Y-81946546D01*
G37*
%TD.AperFunction*%
%TA.AperFunction,Conductor*%
G36*
X194947208Y-79625657D02*
G01*
X195171620Y-79641707D01*
X195189121Y-79644224D01*
X195402465Y-79690634D01*
X195419424Y-79695613D01*
X195624004Y-79771918D01*
X195640084Y-79779262D01*
X195831707Y-79883896D01*
X195846590Y-79893461D01*
X196021367Y-80024297D01*
X196034738Y-80035883D01*
X196189116Y-80190261D01*
X196200702Y-80203632D01*
X196331538Y-80378409D01*
X196341103Y-80393292D01*
X196445734Y-80584909D01*
X196453084Y-80601002D01*
X196529383Y-80805567D01*
X196534367Y-80822543D01*
X196580774Y-81035872D01*
X196583292Y-81053384D01*
X196599342Y-81277789D01*
X196599500Y-81282213D01*
X196599500Y-82708041D01*
X196579815Y-82775080D01*
X196527011Y-82820835D01*
X196457853Y-82830779D01*
X196404377Y-82809616D01*
X196232734Y-82689432D01*
X196232732Y-82689431D01*
X196026497Y-82593261D01*
X196026488Y-82593258D01*
X195806697Y-82534366D01*
X195806693Y-82534365D01*
X195806692Y-82534365D01*
X195806691Y-82534364D01*
X195806686Y-82534364D01*
X195580002Y-82514532D01*
X195579998Y-82514532D01*
X195353313Y-82534364D01*
X195353302Y-82534366D01*
X195133511Y-82593258D01*
X195133502Y-82593261D01*
X194927267Y-82689431D01*
X194927265Y-82689432D01*
X194740858Y-82819954D01*
X194579953Y-82980859D01*
X194468907Y-83139451D01*
X194414330Y-83183076D01*
X194371228Y-83192267D01*
X194304842Y-83194353D01*
X194300186Y-83194500D01*
X194270649Y-83194500D01*
X194263766Y-83195369D01*
X194257949Y-83195826D01*
X194211373Y-83197290D01*
X194192129Y-83202881D01*
X194173079Y-83206825D01*
X194153211Y-83209334D01*
X194109884Y-83226488D01*
X194104358Y-83228379D01*
X194059614Y-83241379D01*
X194059610Y-83241381D01*
X194042366Y-83251579D01*
X194024905Y-83260133D01*
X194006274Y-83267510D01*
X194006262Y-83267517D01*
X193968570Y-83294902D01*
X193963687Y-83298109D01*
X193923580Y-83321829D01*
X193909414Y-83335995D01*
X193894624Y-83348627D01*
X193878414Y-83360404D01*
X193878411Y-83360407D01*
X193848710Y-83396309D01*
X193844777Y-83400631D01*
X192413708Y-84831699D01*
X192401451Y-84841520D01*
X192401634Y-84841741D01*
X192395623Y-84846713D01*
X192348272Y-84897136D01*
X192327389Y-84918019D01*
X192327377Y-84918032D01*
X192323121Y-84923517D01*
X192319337Y-84927947D01*
X192287437Y-84961918D01*
X192287436Y-84961920D01*
X192277784Y-84979476D01*
X192267110Y-84995726D01*
X192254829Y-85011561D01*
X192254824Y-85011568D01*
X192236315Y-85054338D01*
X192233745Y-85059584D01*
X192211302Y-85100408D01*
X192206382Y-85119570D01*
X192170641Y-85179606D01*
X192146485Y-85195863D01*
X192146813Y-85196395D01*
X192140667Y-85200185D01*
X192140666Y-85200186D01*
X192063080Y-85248041D01*
X191991342Y-85292289D01*
X191867288Y-85416343D01*
X191867283Y-85416349D01*
X191865241Y-85419661D01*
X191863247Y-85421453D01*
X191862807Y-85422011D01*
X191862711Y-85421935D01*
X191813291Y-85466383D01*
X191744328Y-85477602D01*
X191680247Y-85449755D01*
X191654168Y-85419656D01*
X191652319Y-85416659D01*
X191652316Y-85416655D01*
X191528345Y-85292684D01*
X191379124Y-85200643D01*
X191379119Y-85200641D01*
X191212697Y-85145494D01*
X191212690Y-85145493D01*
X191109986Y-85135000D01*
X190972500Y-85135000D01*
X190972500Y-87584999D01*
X191109972Y-87584999D01*
X191109986Y-87584998D01*
X191212697Y-87574505D01*
X191379119Y-87519358D01*
X191379124Y-87519356D01*
X191528345Y-87427315D01*
X191652318Y-87303342D01*
X191654165Y-87300348D01*
X191655969Y-87298724D01*
X191656798Y-87297677D01*
X191656976Y-87297818D01*
X191706110Y-87253621D01*
X191775073Y-87242396D01*
X191839156Y-87270236D01*
X191865243Y-87300341D01*
X191867288Y-87303656D01*
X191991344Y-87427712D01*
X192140666Y-87519814D01*
X192307203Y-87574999D01*
X192409991Y-87585500D01*
X192812728Y-87585499D01*
X192879766Y-87605183D01*
X192925521Y-87657987D01*
X192935465Y-87727146D01*
X192920115Y-87771498D01*
X192847820Y-87896718D01*
X192847818Y-87896722D01*
X192789327Y-88076740D01*
X192789326Y-88076744D01*
X192769540Y-88265000D01*
X192789326Y-88453256D01*
X192789327Y-88453259D01*
X192847818Y-88633277D01*
X192847821Y-88633284D01*
X192942467Y-88797216D01*
X192975388Y-88833778D01*
X193027650Y-88891821D01*
X193057880Y-88954812D01*
X193059500Y-88974793D01*
X193059500Y-90115500D01*
X193039815Y-90182539D01*
X192987011Y-90228294D01*
X192935500Y-90239500D01*
X192359998Y-90239500D01*
X192359980Y-90239501D01*
X192257203Y-90250000D01*
X192257200Y-90250001D01*
X192090668Y-90305185D01*
X192090663Y-90305187D01*
X191941342Y-90397289D01*
X191847681Y-90490951D01*
X191786358Y-90524436D01*
X191716666Y-90519452D01*
X191672319Y-90490951D01*
X191578657Y-90397289D01*
X191578656Y-90397288D01*
X191485888Y-90340069D01*
X191429336Y-90305187D01*
X191429331Y-90305185D01*
X191402880Y-90296420D01*
X191262797Y-90250001D01*
X191262795Y-90250000D01*
X191160016Y-90239500D01*
X191160009Y-90239500D01*
X190495453Y-90239500D01*
X190428414Y-90219815D01*
X190407772Y-90203181D01*
X189891819Y-89687228D01*
X189858334Y-89625905D01*
X189855500Y-89599547D01*
X189855500Y-87611770D01*
X189875185Y-87544731D01*
X189927989Y-87498976D01*
X189997147Y-87489032D01*
X190044598Y-87506232D01*
X190065873Y-87519355D01*
X190065880Y-87519358D01*
X190232302Y-87574505D01*
X190232309Y-87574506D01*
X190335019Y-87584999D01*
X190472499Y-87584999D01*
X190472500Y-87584998D01*
X190472500Y-85173677D01*
X190492185Y-85106638D01*
X190504340Y-85090716D01*
X190597533Y-84987216D01*
X190692179Y-84823284D01*
X190750674Y-84643256D01*
X190770460Y-84455000D01*
X190750674Y-84266744D01*
X190692179Y-84086716D01*
X190597533Y-83922784D01*
X190470871Y-83782112D01*
X190470870Y-83782111D01*
X190317734Y-83670851D01*
X190317729Y-83670848D01*
X190144807Y-83593857D01*
X190144802Y-83593855D01*
X189999001Y-83562865D01*
X189959646Y-83554500D01*
X189770354Y-83554500D01*
X189737897Y-83561398D01*
X189585197Y-83593855D01*
X189585192Y-83593857D01*
X189434935Y-83660757D01*
X189365685Y-83670042D01*
X189302408Y-83640414D01*
X189265195Y-83581279D01*
X189260499Y-83547478D01*
X189260499Y-83299500D01*
X189280184Y-83232461D01*
X189332988Y-83186706D01*
X189384499Y-83175500D01*
X191066252Y-83175500D01*
X191133291Y-83195185D01*
X191158400Y-83216526D01*
X191164126Y-83222885D01*
X191164130Y-83222889D01*
X191317265Y-83334148D01*
X191317270Y-83334151D01*
X191490192Y-83411142D01*
X191490197Y-83411144D01*
X191675354Y-83450500D01*
X191675355Y-83450500D01*
X191864644Y-83450500D01*
X191864646Y-83450500D01*
X192049803Y-83411144D01*
X192222730Y-83334151D01*
X192375871Y-83222888D01*
X192502533Y-83082216D01*
X192597179Y-82918284D01*
X192655674Y-82738256D01*
X192675460Y-82550000D01*
X192655674Y-82361744D01*
X192597179Y-82181716D01*
X192502533Y-82017784D01*
X192375871Y-81877112D01*
X192375870Y-81877111D01*
X192222734Y-81765851D01*
X192222729Y-81765848D01*
X192049807Y-81688857D01*
X192049802Y-81688855D01*
X191904001Y-81657865D01*
X191864646Y-81649500D01*
X191675354Y-81649500D01*
X191642897Y-81656398D01*
X191490197Y-81688855D01*
X191490192Y-81688857D01*
X191317270Y-81765848D01*
X191317265Y-81765851D01*
X191164130Y-81877110D01*
X191164126Y-81877114D01*
X191158400Y-81883474D01*
X191098913Y-81920121D01*
X191066252Y-81924500D01*
X190613666Y-81924500D01*
X190546627Y-81904815D01*
X190500872Y-81852011D01*
X190490928Y-81782853D01*
X190501284Y-81748096D01*
X190503428Y-81743497D01*
X190503432Y-81743486D01*
X190560636Y-81530000D01*
X189663686Y-81530000D01*
X189689493Y-81489844D01*
X189730000Y-81351889D01*
X189730000Y-81208111D01*
X189689493Y-81070156D01*
X189663686Y-81030000D01*
X190560636Y-81030000D01*
X190560635Y-81029999D01*
X190503432Y-80816513D01*
X190503429Y-80816507D01*
X190403600Y-80602422D01*
X190403599Y-80602420D01*
X190268113Y-80408926D01*
X190268108Y-80408920D01*
X190101082Y-80241894D01*
X189907578Y-80106399D01*
X189693492Y-80006570D01*
X189693486Y-80006567D01*
X189480000Y-79949364D01*
X189480000Y-80844498D01*
X189372315Y-80795320D01*
X189265763Y-80780000D01*
X189194237Y-80780000D01*
X189087685Y-80795320D01*
X188980000Y-80844498D01*
X188980000Y-79949364D01*
X188979999Y-79949364D01*
X188766513Y-80006567D01*
X188766507Y-80006570D01*
X188552422Y-80106399D01*
X188552420Y-80106400D01*
X188358926Y-80241886D01*
X188358920Y-80241891D01*
X188191891Y-80408920D01*
X188191890Y-80408922D01*
X188061880Y-80594595D01*
X188007303Y-80638219D01*
X187937804Y-80645412D01*
X187875450Y-80613890D01*
X187858730Y-80594594D01*
X187728494Y-80408597D01*
X187561402Y-80241506D01*
X187561395Y-80241501D01*
X187367834Y-80105967D01*
X187367830Y-80105965D01*
X187367828Y-80105964D01*
X187153663Y-80006097D01*
X187153659Y-80006096D01*
X187153655Y-80006094D01*
X186925413Y-79944938D01*
X186925403Y-79944936D01*
X186690001Y-79924341D01*
X186689999Y-79924341D01*
X186454596Y-79944936D01*
X186454586Y-79944938D01*
X186226344Y-80006094D01*
X186226335Y-80006098D01*
X186012171Y-80105964D01*
X186012169Y-80105965D01*
X185818597Y-80241505D01*
X185651505Y-80408597D01*
X185521575Y-80594158D01*
X185466998Y-80637783D01*
X185397500Y-80644977D01*
X185335145Y-80613454D01*
X185318425Y-80594158D01*
X185188494Y-80408597D01*
X185021402Y-80241506D01*
X185021395Y-80241501D01*
X184827834Y-80105967D01*
X184827830Y-80105965D01*
X184827828Y-80105964D01*
X184613663Y-80006097D01*
X184613659Y-80006096D01*
X184613655Y-80006094D01*
X184385413Y-79944938D01*
X184385403Y-79944936D01*
X184150001Y-79924341D01*
X184149999Y-79924341D01*
X183914596Y-79944936D01*
X183914586Y-79944938D01*
X183686344Y-80006094D01*
X183686335Y-80006098D01*
X183472171Y-80105964D01*
X183472169Y-80105965D01*
X183278600Y-80241503D01*
X183156673Y-80363430D01*
X183095350Y-80396914D01*
X183025658Y-80391930D01*
X182969725Y-80350058D01*
X182952810Y-80319081D01*
X182903797Y-80187671D01*
X182903793Y-80187664D01*
X182817547Y-80072455D01*
X182817544Y-80072452D01*
X182702335Y-79986206D01*
X182702328Y-79986202D01*
X182567482Y-79935908D01*
X182567483Y-79935908D01*
X182507883Y-79929501D01*
X182507881Y-79929500D01*
X182507873Y-79929500D01*
X182507864Y-79929500D01*
X180712129Y-79929500D01*
X180712123Y-79929501D01*
X180652516Y-79935908D01*
X180517671Y-79986202D01*
X180517664Y-79986206D01*
X180402455Y-80072452D01*
X180402452Y-80072455D01*
X180316206Y-80187664D01*
X180316202Y-80187671D01*
X180265908Y-80322517D01*
X180259501Y-80382116D01*
X180259500Y-80382135D01*
X180259500Y-82177870D01*
X180259501Y-82177876D01*
X180265908Y-82237483D01*
X180316202Y-82372328D01*
X180316206Y-82372335D01*
X180402452Y-82487544D01*
X180402455Y-82487547D01*
X180517664Y-82573793D01*
X180517671Y-82573797D01*
X180652517Y-82624091D01*
X180652516Y-82624091D01*
X180659444Y-82624835D01*
X180712127Y-82630500D01*
X181930951Y-82630499D01*
X181997990Y-82650184D01*
X182043745Y-82702987D01*
X182053689Y-82772146D01*
X182024664Y-82835702D01*
X182018633Y-82842180D01*
X181879951Y-82980862D01*
X181768907Y-83139451D01*
X181714330Y-83183076D01*
X181671228Y-83192267D01*
X181604842Y-83194353D01*
X181600186Y-83194500D01*
X181570649Y-83194500D01*
X181563766Y-83195369D01*
X181557949Y-83195826D01*
X181511373Y-83197290D01*
X181492129Y-83202881D01*
X181473079Y-83206825D01*
X181453211Y-83209334D01*
X181409884Y-83226488D01*
X181404358Y-83228379D01*
X181359614Y-83241379D01*
X181359610Y-83241381D01*
X181342366Y-83251579D01*
X181324905Y-83260133D01*
X181306274Y-83267510D01*
X181306262Y-83267517D01*
X181268570Y-83294902D01*
X181263687Y-83298109D01*
X181223580Y-83321829D01*
X181209414Y-83335995D01*
X181194624Y-83348627D01*
X181178414Y-83360404D01*
X181178411Y-83360407D01*
X181148710Y-83396309D01*
X181144777Y-83400631D01*
X179713708Y-84831699D01*
X179701451Y-84841520D01*
X179701634Y-84841741D01*
X179695623Y-84846713D01*
X179648272Y-84897136D01*
X179627389Y-84918019D01*
X179627377Y-84918032D01*
X179623121Y-84923517D01*
X179619337Y-84927947D01*
X179587437Y-84961918D01*
X179587436Y-84961920D01*
X179577784Y-84979476D01*
X179567110Y-84995726D01*
X179554829Y-85011561D01*
X179554824Y-85011568D01*
X179536315Y-85054338D01*
X179533745Y-85059584D01*
X179511302Y-85100408D01*
X179506382Y-85119570D01*
X179470641Y-85179606D01*
X179446485Y-85195863D01*
X179446813Y-85196395D01*
X179440667Y-85200185D01*
X179440666Y-85200186D01*
X179363080Y-85248041D01*
X179291342Y-85292289D01*
X179167288Y-85416343D01*
X179167283Y-85416349D01*
X179165241Y-85419661D01*
X179163247Y-85421453D01*
X179162807Y-85422011D01*
X179162711Y-85421935D01*
X179113291Y-85466383D01*
X179044328Y-85477602D01*
X178980247Y-85449755D01*
X178954168Y-85419656D01*
X178952319Y-85416659D01*
X178952316Y-85416655D01*
X178828345Y-85292684D01*
X178679124Y-85200643D01*
X178679119Y-85200641D01*
X178512697Y-85145494D01*
X178512690Y-85145493D01*
X178409986Y-85135000D01*
X178272500Y-85135000D01*
X178272500Y-87584999D01*
X178409972Y-87584999D01*
X178409986Y-87584998D01*
X178512697Y-87574505D01*
X178679119Y-87519358D01*
X178679124Y-87519356D01*
X178828345Y-87427315D01*
X178952318Y-87303342D01*
X178954165Y-87300348D01*
X178955969Y-87298724D01*
X178956798Y-87297677D01*
X178956976Y-87297818D01*
X179006110Y-87253621D01*
X179075073Y-87242396D01*
X179139156Y-87270236D01*
X179165243Y-87300341D01*
X179167288Y-87303656D01*
X179291344Y-87427712D01*
X179440666Y-87519814D01*
X179607203Y-87574999D01*
X179709991Y-87585500D01*
X180485008Y-87585499D01*
X180485016Y-87585498D01*
X180485019Y-87585498D01*
X180541302Y-87579748D01*
X180587797Y-87574999D01*
X180754334Y-87519814D01*
X180903656Y-87427712D01*
X180917819Y-87413549D01*
X180979142Y-87380064D01*
X181048834Y-87385048D01*
X181104767Y-87426920D01*
X181129184Y-87492384D01*
X181129500Y-87501230D01*
X181129500Y-88117162D01*
X181109815Y-88184201D01*
X181057011Y-88229956D01*
X180987853Y-88239900D01*
X180932615Y-88217480D01*
X180792734Y-88115851D01*
X180792729Y-88115848D01*
X180619807Y-88038857D01*
X180619802Y-88038855D01*
X180474001Y-88007865D01*
X180434646Y-87999500D01*
X180245354Y-87999500D01*
X180212897Y-88006398D01*
X180060197Y-88038855D01*
X180060192Y-88038857D01*
X179887270Y-88115848D01*
X179887265Y-88115851D01*
X179734129Y-88227111D01*
X179607466Y-88367785D01*
X179512821Y-88531715D01*
X179512818Y-88531722D01*
X179466814Y-88673309D01*
X179454326Y-88711744D01*
X179434540Y-88900000D01*
X179454326Y-89088256D01*
X179454327Y-89088259D01*
X179512818Y-89268277D01*
X179512821Y-89268284D01*
X179607467Y-89432216D01*
X179715982Y-89552734D01*
X179734129Y-89572888D01*
X179887265Y-89684148D01*
X179887270Y-89684151D01*
X180060192Y-89761142D01*
X180060197Y-89761144D01*
X180245354Y-89800500D01*
X180304548Y-89800500D01*
X180371587Y-89820185D01*
X180392229Y-89836819D01*
X180586553Y-90031143D01*
X180620038Y-90092466D01*
X180615054Y-90162158D01*
X180573182Y-90218091D01*
X180507718Y-90242508D01*
X180486272Y-90242182D01*
X180460023Y-90239501D01*
X180460014Y-90239500D01*
X180460009Y-90239500D01*
X180460003Y-90239500D01*
X179659998Y-90239500D01*
X179659980Y-90239501D01*
X179557203Y-90250000D01*
X179557200Y-90250001D01*
X179390668Y-90305185D01*
X179390663Y-90305187D01*
X179241342Y-90397289D01*
X179147681Y-90490951D01*
X179086358Y-90524436D01*
X179016666Y-90519452D01*
X178972319Y-90490951D01*
X178878657Y-90397289D01*
X178878656Y-90397288D01*
X178744402Y-90314480D01*
X178697679Y-90262533D01*
X178685500Y-90208942D01*
X178685500Y-89592023D01*
X178705185Y-89524984D01*
X178717350Y-89509051D01*
X178722004Y-89503882D01*
X178786533Y-89432216D01*
X178881179Y-89268284D01*
X178939674Y-89088256D01*
X178959460Y-88900000D01*
X178939674Y-88711744D01*
X178881179Y-88531716D01*
X178786533Y-88367784D01*
X178659871Y-88227112D01*
X178646614Y-88217480D01*
X178506734Y-88115851D01*
X178506729Y-88115848D01*
X178333807Y-88038857D01*
X178333802Y-88038855D01*
X178188001Y-88007865D01*
X178148646Y-87999500D01*
X177959354Y-87999500D01*
X177926897Y-88006398D01*
X177774197Y-88038855D01*
X177774192Y-88038857D01*
X177601270Y-88115848D01*
X177601265Y-88115851D01*
X177448129Y-88227111D01*
X177371650Y-88312050D01*
X177312163Y-88348699D01*
X177242306Y-88347368D01*
X177184258Y-88308482D01*
X177156448Y-88244385D01*
X177155500Y-88229078D01*
X177155500Y-87611770D01*
X177175185Y-87544731D01*
X177227989Y-87498976D01*
X177297147Y-87489032D01*
X177344598Y-87506232D01*
X177365873Y-87519355D01*
X177365880Y-87519358D01*
X177532302Y-87574505D01*
X177532309Y-87574506D01*
X177635019Y-87584999D01*
X177772499Y-87584999D01*
X177772500Y-87584998D01*
X177772500Y-85135000D01*
X177635027Y-85135000D01*
X177635012Y-85135001D01*
X177532302Y-85145494D01*
X177365880Y-85200641D01*
X177365870Y-85200646D01*
X177345516Y-85213200D01*
X177278123Y-85231638D01*
X177211460Y-85210713D01*
X177166692Y-85157069D01*
X177156485Y-85111553D01*
X177155500Y-85080203D01*
X177155500Y-85050650D01*
X177154629Y-85043759D01*
X177154172Y-85037945D01*
X177152709Y-84991372D01*
X177147122Y-84972144D01*
X177143174Y-84953084D01*
X177140664Y-84933208D01*
X177123507Y-84889875D01*
X177121619Y-84884359D01*
X177108619Y-84839612D01*
X177098418Y-84822363D01*
X177089860Y-84804894D01*
X177082486Y-84786268D01*
X177082483Y-84786264D01*
X177082483Y-84786263D01*
X177055098Y-84748571D01*
X177051890Y-84743687D01*
X177028172Y-84703582D01*
X177028163Y-84703571D01*
X177014005Y-84689413D01*
X177001370Y-84674620D01*
X176989593Y-84658412D01*
X176953693Y-84628713D01*
X176949381Y-84624790D01*
X176596818Y-84272227D01*
X176563333Y-84210904D01*
X176560499Y-84184546D01*
X176560499Y-82972129D01*
X176560498Y-82972123D01*
X176554091Y-82912516D01*
X176503797Y-82777671D01*
X176503793Y-82777664D01*
X176417547Y-82662455D01*
X176417544Y-82662452D01*
X176302335Y-82576206D01*
X176302328Y-82576202D01*
X176167482Y-82525908D01*
X176167483Y-82525908D01*
X176107883Y-82519501D01*
X176107881Y-82519500D01*
X176107873Y-82519500D01*
X176107864Y-82519500D01*
X174412129Y-82519500D01*
X174412123Y-82519501D01*
X174377753Y-82523196D01*
X174308994Y-82510789D01*
X174257857Y-82463178D01*
X174240500Y-82399906D01*
X174240500Y-81282213D01*
X174240658Y-81277789D01*
X174249825Y-81149616D01*
X174256707Y-81053377D01*
X174259223Y-81035880D01*
X174305635Y-80822530D01*
X174310612Y-80805579D01*
X174386920Y-80600989D01*
X174394259Y-80584920D01*
X174498900Y-80393284D01*
X174508456Y-80378415D01*
X174639302Y-80203625D01*
X174650876Y-80190268D01*
X174805268Y-80035876D01*
X174818625Y-80024302D01*
X174993415Y-79893456D01*
X175008284Y-79883900D01*
X175199920Y-79779259D01*
X175215989Y-79771920D01*
X175420579Y-79695612D01*
X175437530Y-79690635D01*
X175650880Y-79644223D01*
X175668377Y-79641707D01*
X175892791Y-79625657D01*
X175897214Y-79625500D01*
X175939170Y-79625500D01*
X194900830Y-79625500D01*
X194942786Y-79625500D01*
X194947208Y-79625657D01*
G37*
%TD.AperFunction*%
%TD*%
M02*
