%TF.GenerationSoftware,KiCad,Pcbnew,7.0.8-7.0.8~ubuntu23.04.1*%
%TF.CreationDate,2023-10-19T21:44:50+04:00*%
%TF.ProjectId,async_counter,6173796e-635f-4636-9f75-6e7465722e6b,rev?*%
%TF.SameCoordinates,Original*%
%TF.FileFunction,Legend,Top*%
%TF.FilePolarity,Positive*%
%FSLAX46Y46*%
G04 Gerber Fmt 4.6, Leading zero omitted, Abs format (unit mm)*
G04 Created by KiCad (PCBNEW 7.0.8-7.0.8~ubuntu23.04.1) date 2023-10-19 21:44:50*
%MOMM*%
%LPD*%
G01*
G04 APERTURE LIST*
%ADD10C,0.150000*%
%ADD11C,0.100000*%
%ADD12C,0.120000*%
G04 APERTURE END LIST*
D10*
X185128141Y-81369019D02*
X185747188Y-81369019D01*
X185747188Y-81369019D02*
X185413855Y-81749971D01*
X185413855Y-81749971D02*
X185556712Y-81749971D01*
X185556712Y-81749971D02*
X185651950Y-81797590D01*
X185651950Y-81797590D02*
X185699569Y-81845209D01*
X185699569Y-81845209D02*
X185747188Y-81940447D01*
X185747188Y-81940447D02*
X185747188Y-82178542D01*
X185747188Y-82178542D02*
X185699569Y-82273780D01*
X185699569Y-82273780D02*
X185651950Y-82321400D01*
X185651950Y-82321400D02*
X185556712Y-82369019D01*
X185556712Y-82369019D02*
X185270998Y-82369019D01*
X185270998Y-82369019D02*
X185175760Y-82321400D01*
X185175760Y-82321400D02*
X185128141Y-82273780D01*
X185413855Y-95974019D02*
X185509093Y-95974019D01*
X185509093Y-95974019D02*
X185604331Y-96021638D01*
X185604331Y-96021638D02*
X185651950Y-96069257D01*
X185651950Y-96069257D02*
X185699569Y-96164495D01*
X185699569Y-96164495D02*
X185747188Y-96354971D01*
X185747188Y-96354971D02*
X185747188Y-96593066D01*
X185747188Y-96593066D02*
X185699569Y-96783542D01*
X185699569Y-96783542D02*
X185651950Y-96878780D01*
X185651950Y-96878780D02*
X185604331Y-96926400D01*
X185604331Y-96926400D02*
X185509093Y-96974019D01*
X185509093Y-96974019D02*
X185413855Y-96974019D01*
X185413855Y-96974019D02*
X185318617Y-96926400D01*
X185318617Y-96926400D02*
X185270998Y-96878780D01*
X185270998Y-96878780D02*
X185223379Y-96783542D01*
X185223379Y-96783542D02*
X185175760Y-96593066D01*
X185175760Y-96593066D02*
X185175760Y-96354971D01*
X185175760Y-96354971D02*
X185223379Y-96164495D01*
X185223379Y-96164495D02*
X185270998Y-96069257D01*
X185270998Y-96069257D02*
X185318617Y-96021638D01*
X185318617Y-96021638D02*
X185413855Y-95974019D01*
X191154207Y-81308580D02*
X191106588Y-81356200D01*
X191106588Y-81356200D02*
X190963731Y-81403819D01*
X190963731Y-81403819D02*
X190868493Y-81403819D01*
X190868493Y-81403819D02*
X190725636Y-81356200D01*
X190725636Y-81356200D02*
X190630398Y-81260961D01*
X190630398Y-81260961D02*
X190582779Y-81165723D01*
X190582779Y-81165723D02*
X190535160Y-80975247D01*
X190535160Y-80975247D02*
X190535160Y-80832390D01*
X190535160Y-80832390D02*
X190582779Y-80641914D01*
X190582779Y-80641914D02*
X190630398Y-80546676D01*
X190630398Y-80546676D02*
X190725636Y-80451438D01*
X190725636Y-80451438D02*
X190868493Y-80403819D01*
X190868493Y-80403819D02*
X190963731Y-80403819D01*
X190963731Y-80403819D02*
X191106588Y-80451438D01*
X191106588Y-80451438D02*
X191154207Y-80499057D01*
X192058969Y-81403819D02*
X191582779Y-81403819D01*
X191582779Y-81403819D02*
X191582779Y-80403819D01*
X192963731Y-81403819D02*
X192630398Y-80927628D01*
X192392303Y-81403819D02*
X192392303Y-80403819D01*
X192392303Y-80403819D02*
X192773255Y-80403819D01*
X192773255Y-80403819D02*
X192868493Y-80451438D01*
X192868493Y-80451438D02*
X192916112Y-80499057D01*
X192916112Y-80499057D02*
X192963731Y-80594295D01*
X192963731Y-80594295D02*
X192963731Y-80737152D01*
X192963731Y-80737152D02*
X192916112Y-80832390D01*
X192916112Y-80832390D02*
X192868493Y-80880009D01*
X192868493Y-80880009D02*
X192773255Y-80927628D01*
X192773255Y-80927628D02*
X192392303Y-80927628D01*
X190444684Y-80126200D02*
X193054208Y-80126200D01*
D11*
X174433598Y-101705438D02*
X174743122Y-101705438D01*
X174371693Y-101891152D02*
X174588360Y-101241152D01*
X174588360Y-101241152D02*
X174805027Y-101891152D01*
X174990741Y-101860200D02*
X175083598Y-101891152D01*
X175083598Y-101891152D02*
X175238360Y-101891152D01*
X175238360Y-101891152D02*
X175300265Y-101860200D01*
X175300265Y-101860200D02*
X175331217Y-101829247D01*
X175331217Y-101829247D02*
X175362170Y-101767342D01*
X175362170Y-101767342D02*
X175362170Y-101705438D01*
X175362170Y-101705438D02*
X175331217Y-101643533D01*
X175331217Y-101643533D02*
X175300265Y-101612580D01*
X175300265Y-101612580D02*
X175238360Y-101581628D01*
X175238360Y-101581628D02*
X175114551Y-101550676D01*
X175114551Y-101550676D02*
X175052646Y-101519723D01*
X175052646Y-101519723D02*
X175021693Y-101488771D01*
X175021693Y-101488771D02*
X174990741Y-101426866D01*
X174990741Y-101426866D02*
X174990741Y-101364961D01*
X174990741Y-101364961D02*
X175021693Y-101303057D01*
X175021693Y-101303057D02*
X175052646Y-101272104D01*
X175052646Y-101272104D02*
X175114551Y-101241152D01*
X175114551Y-101241152D02*
X175269312Y-101241152D01*
X175269312Y-101241152D02*
X175362170Y-101272104D01*
X175764551Y-101581628D02*
X175764551Y-101891152D01*
X175547884Y-101241152D02*
X175764551Y-101581628D01*
X175764551Y-101581628D02*
X175981218Y-101241152D01*
X176197884Y-101891152D02*
X176197884Y-101241152D01*
X176197884Y-101241152D02*
X176569313Y-101891152D01*
X176569313Y-101891152D02*
X176569313Y-101241152D01*
X177250265Y-101829247D02*
X177219313Y-101860200D01*
X177219313Y-101860200D02*
X177126455Y-101891152D01*
X177126455Y-101891152D02*
X177064551Y-101891152D01*
X177064551Y-101891152D02*
X176971694Y-101860200D01*
X176971694Y-101860200D02*
X176909789Y-101798295D01*
X176909789Y-101798295D02*
X176878836Y-101736390D01*
X176878836Y-101736390D02*
X176847884Y-101612580D01*
X176847884Y-101612580D02*
X176847884Y-101519723D01*
X176847884Y-101519723D02*
X176878836Y-101395914D01*
X176878836Y-101395914D02*
X176909789Y-101334009D01*
X176909789Y-101334009D02*
X176971694Y-101272104D01*
X176971694Y-101272104D02*
X177064551Y-101241152D01*
X177064551Y-101241152D02*
X177126455Y-101241152D01*
X177126455Y-101241152D02*
X177219313Y-101272104D01*
X177219313Y-101272104D02*
X177250265Y-101303057D01*
X175826455Y-102875747D02*
X175795503Y-102906700D01*
X175795503Y-102906700D02*
X175702645Y-102937652D01*
X175702645Y-102937652D02*
X175640741Y-102937652D01*
X175640741Y-102937652D02*
X175547884Y-102906700D01*
X175547884Y-102906700D02*
X175485979Y-102844795D01*
X175485979Y-102844795D02*
X175455026Y-102782890D01*
X175455026Y-102782890D02*
X175424074Y-102659080D01*
X175424074Y-102659080D02*
X175424074Y-102566223D01*
X175424074Y-102566223D02*
X175455026Y-102442414D01*
X175455026Y-102442414D02*
X175485979Y-102380509D01*
X175485979Y-102380509D02*
X175547884Y-102318604D01*
X175547884Y-102318604D02*
X175640741Y-102287652D01*
X175640741Y-102287652D02*
X175702645Y-102287652D01*
X175702645Y-102287652D02*
X175795503Y-102318604D01*
X175795503Y-102318604D02*
X175826455Y-102349557D01*
X176228836Y-102287652D02*
X176352645Y-102287652D01*
X176352645Y-102287652D02*
X176414550Y-102318604D01*
X176414550Y-102318604D02*
X176476455Y-102380509D01*
X176476455Y-102380509D02*
X176507407Y-102504319D01*
X176507407Y-102504319D02*
X176507407Y-102720985D01*
X176507407Y-102720985D02*
X176476455Y-102844795D01*
X176476455Y-102844795D02*
X176414550Y-102906700D01*
X176414550Y-102906700D02*
X176352645Y-102937652D01*
X176352645Y-102937652D02*
X176228836Y-102937652D01*
X176228836Y-102937652D02*
X176166931Y-102906700D01*
X176166931Y-102906700D02*
X176105026Y-102844795D01*
X176105026Y-102844795D02*
X176074074Y-102720985D01*
X176074074Y-102720985D02*
X176074074Y-102504319D01*
X176074074Y-102504319D02*
X176105026Y-102380509D01*
X176105026Y-102380509D02*
X176166931Y-102318604D01*
X176166931Y-102318604D02*
X176228836Y-102287652D01*
X176785978Y-102287652D02*
X176785978Y-102813842D01*
X176785978Y-102813842D02*
X176816931Y-102875747D01*
X176816931Y-102875747D02*
X176847883Y-102906700D01*
X176847883Y-102906700D02*
X176909788Y-102937652D01*
X176909788Y-102937652D02*
X177033597Y-102937652D01*
X177033597Y-102937652D02*
X177095502Y-102906700D01*
X177095502Y-102906700D02*
X177126455Y-102875747D01*
X177126455Y-102875747D02*
X177157407Y-102813842D01*
X177157407Y-102813842D02*
X177157407Y-102287652D01*
X177466930Y-102937652D02*
X177466930Y-102287652D01*
X177466930Y-102287652D02*
X177838359Y-102937652D01*
X177838359Y-102937652D02*
X177838359Y-102287652D01*
X178055025Y-102287652D02*
X178426454Y-102287652D01*
X178240740Y-102937652D02*
X178240740Y-102287652D01*
X178643120Y-102597176D02*
X178859787Y-102597176D01*
X178952644Y-102937652D02*
X178643120Y-102937652D01*
X178643120Y-102937652D02*
X178643120Y-102287652D01*
X178643120Y-102287652D02*
X178952644Y-102287652D01*
X179602644Y-102937652D02*
X179385977Y-102628128D01*
X179231215Y-102937652D02*
X179231215Y-102287652D01*
X179231215Y-102287652D02*
X179478834Y-102287652D01*
X179478834Y-102287652D02*
X179540739Y-102318604D01*
X179540739Y-102318604D02*
X179571692Y-102349557D01*
X179571692Y-102349557D02*
X179602644Y-102411461D01*
X179602644Y-102411461D02*
X179602644Y-102504319D01*
X179602644Y-102504319D02*
X179571692Y-102566223D01*
X179571692Y-102566223D02*
X179540739Y-102597176D01*
X179540739Y-102597176D02*
X179478834Y-102628128D01*
X179478834Y-102628128D02*
X179231215Y-102628128D01*
D10*
X178454207Y-81308580D02*
X178406588Y-81356200D01*
X178406588Y-81356200D02*
X178263731Y-81403819D01*
X178263731Y-81403819D02*
X178168493Y-81403819D01*
X178168493Y-81403819D02*
X178025636Y-81356200D01*
X178025636Y-81356200D02*
X177930398Y-81260961D01*
X177930398Y-81260961D02*
X177882779Y-81165723D01*
X177882779Y-81165723D02*
X177835160Y-80975247D01*
X177835160Y-80975247D02*
X177835160Y-80832390D01*
X177835160Y-80832390D02*
X177882779Y-80641914D01*
X177882779Y-80641914D02*
X177930398Y-80546676D01*
X177930398Y-80546676D02*
X178025636Y-80451438D01*
X178025636Y-80451438D02*
X178168493Y-80403819D01*
X178168493Y-80403819D02*
X178263731Y-80403819D01*
X178263731Y-80403819D02*
X178406588Y-80451438D01*
X178406588Y-80451438D02*
X178454207Y-80499057D01*
X179358969Y-81403819D02*
X178882779Y-81403819D01*
X178882779Y-81403819D02*
X178882779Y-80403819D01*
X179692303Y-81403819D02*
X179692303Y-80403819D01*
X180263731Y-81403819D02*
X179835160Y-80832390D01*
X180263731Y-80403819D02*
X179692303Y-80975247D01*
X185772588Y-92097219D02*
X185201160Y-92097219D01*
X185486874Y-92097219D02*
X185486874Y-91097219D01*
X185486874Y-91097219D02*
X185391636Y-91240076D01*
X185391636Y-91240076D02*
X185296398Y-91335314D01*
X185296398Y-91335314D02*
X185201160Y-91382933D01*
X174945922Y-80403819D02*
X175279255Y-81403819D01*
X175279255Y-81403819D02*
X175612588Y-80403819D01*
X176355446Y-81438104D02*
X176317350Y-81476200D01*
X176317350Y-81476200D02*
X176203065Y-81514295D01*
X176203065Y-81514295D02*
X176126874Y-81514295D01*
X176126874Y-81514295D02*
X176012588Y-81476200D01*
X176012588Y-81476200D02*
X175936398Y-81400009D01*
X175936398Y-81400009D02*
X175898303Y-81323819D01*
X175898303Y-81323819D02*
X175860207Y-81171438D01*
X175860207Y-81171438D02*
X175860207Y-81057152D01*
X175860207Y-81057152D02*
X175898303Y-80904771D01*
X175898303Y-80904771D02*
X175936398Y-80828580D01*
X175936398Y-80828580D02*
X176012588Y-80752390D01*
X176012588Y-80752390D02*
X176126874Y-80714295D01*
X176126874Y-80714295D02*
X176203065Y-80714295D01*
X176203065Y-80714295D02*
X176317350Y-80752390D01*
X176317350Y-80752390D02*
X176355446Y-80790485D01*
X177155446Y-81438104D02*
X177117350Y-81476200D01*
X177117350Y-81476200D02*
X177003065Y-81514295D01*
X177003065Y-81514295D02*
X176926874Y-81514295D01*
X176926874Y-81514295D02*
X176812588Y-81476200D01*
X176812588Y-81476200D02*
X176736398Y-81400009D01*
X176736398Y-81400009D02*
X176698303Y-81323819D01*
X176698303Y-81323819D02*
X176660207Y-81171438D01*
X176660207Y-81171438D02*
X176660207Y-81057152D01*
X176660207Y-81057152D02*
X176698303Y-80904771D01*
X176698303Y-80904771D02*
X176736398Y-80828580D01*
X176736398Y-80828580D02*
X176812588Y-80752390D01*
X176812588Y-80752390D02*
X176926874Y-80714295D01*
X176926874Y-80714295D02*
X177003065Y-80714295D01*
X177003065Y-80714295D02*
X177117350Y-80752390D01*
X177117350Y-80752390D02*
X177155446Y-80790485D01*
X194154588Y-80451438D02*
X194059350Y-80403819D01*
X194059350Y-80403819D02*
X193916493Y-80403819D01*
X193916493Y-80403819D02*
X193773636Y-80451438D01*
X193773636Y-80451438D02*
X193678398Y-80546676D01*
X193678398Y-80546676D02*
X193630779Y-80641914D01*
X193630779Y-80641914D02*
X193583160Y-80832390D01*
X193583160Y-80832390D02*
X193583160Y-80975247D01*
X193583160Y-80975247D02*
X193630779Y-81165723D01*
X193630779Y-81165723D02*
X193678398Y-81260961D01*
X193678398Y-81260961D02*
X193773636Y-81356200D01*
X193773636Y-81356200D02*
X193916493Y-81403819D01*
X193916493Y-81403819D02*
X194011731Y-81403819D01*
X194011731Y-81403819D02*
X194154588Y-81356200D01*
X194154588Y-81356200D02*
X194202207Y-81308580D01*
X194202207Y-81308580D02*
X194202207Y-80975247D01*
X194202207Y-80975247D02*
X194011731Y-80975247D01*
X194630779Y-81403819D02*
X194630779Y-80403819D01*
X194630779Y-80403819D02*
X195202207Y-81403819D01*
X195202207Y-81403819D02*
X195202207Y-80403819D01*
X195678398Y-81403819D02*
X195678398Y-80403819D01*
X195678398Y-80403819D02*
X195916493Y-80403819D01*
X195916493Y-80403819D02*
X196059350Y-80451438D01*
X196059350Y-80451438D02*
X196154588Y-80546676D01*
X196154588Y-80546676D02*
X196202207Y-80641914D01*
X196202207Y-80641914D02*
X196249826Y-80832390D01*
X196249826Y-80832390D02*
X196249826Y-80975247D01*
X196249826Y-80975247D02*
X196202207Y-81165723D01*
X196202207Y-81165723D02*
X196154588Y-81260961D01*
X196154588Y-81260961D02*
X196059350Y-81356200D01*
X196059350Y-81356200D02*
X195916493Y-81403819D01*
X195916493Y-81403819D02*
X195678398Y-81403819D01*
X190836779Y-102485819D02*
X190836779Y-101485819D01*
X190836779Y-101485819D02*
X191074874Y-101485819D01*
X191074874Y-101485819D02*
X191217731Y-101533438D01*
X191217731Y-101533438D02*
X191312969Y-101628676D01*
X191312969Y-101628676D02*
X191360588Y-101723914D01*
X191360588Y-101723914D02*
X191408207Y-101914390D01*
X191408207Y-101914390D02*
X191408207Y-102057247D01*
X191408207Y-102057247D02*
X191360588Y-102247723D01*
X191360588Y-102247723D02*
X191312969Y-102342961D01*
X191312969Y-102342961D02*
X191217731Y-102438200D01*
X191217731Y-102438200D02*
X191074874Y-102485819D01*
X191074874Y-102485819D02*
X190836779Y-102485819D01*
X192122493Y-102819152D02*
X191884398Y-102819152D01*
X191884398Y-102819152D02*
X191884398Y-101390580D01*
X191884398Y-101390580D02*
X192122493Y-101390580D01*
X192693922Y-101485819D02*
X192789160Y-101485819D01*
X192789160Y-101485819D02*
X192884398Y-101533438D01*
X192884398Y-101533438D02*
X192932017Y-101581057D01*
X192932017Y-101581057D02*
X192979636Y-101676295D01*
X192979636Y-101676295D02*
X193027255Y-101866771D01*
X193027255Y-101866771D02*
X193027255Y-102104866D01*
X193027255Y-102104866D02*
X192979636Y-102295342D01*
X192979636Y-102295342D02*
X192932017Y-102390580D01*
X192932017Y-102390580D02*
X192884398Y-102438200D01*
X192884398Y-102438200D02*
X192789160Y-102485819D01*
X192789160Y-102485819D02*
X192693922Y-102485819D01*
X192693922Y-102485819D02*
X192598684Y-102438200D01*
X192598684Y-102438200D02*
X192551065Y-102390580D01*
X192551065Y-102390580D02*
X192503446Y-102295342D01*
X192503446Y-102295342D02*
X192455827Y-102104866D01*
X192455827Y-102104866D02*
X192455827Y-101866771D01*
X192455827Y-101866771D02*
X192503446Y-101676295D01*
X192503446Y-101676295D02*
X192551065Y-101581057D01*
X192551065Y-101581057D02*
X192598684Y-101533438D01*
X192598684Y-101533438D02*
X192693922Y-101485819D01*
X193455827Y-102390580D02*
X193503446Y-102438200D01*
X193503446Y-102438200D02*
X193455827Y-102485819D01*
X193455827Y-102485819D02*
X193408208Y-102438200D01*
X193408208Y-102438200D02*
X193455827Y-102390580D01*
X193455827Y-102390580D02*
X193455827Y-102485819D01*
X193932017Y-102390580D02*
X193979636Y-102438200D01*
X193979636Y-102438200D02*
X193932017Y-102485819D01*
X193932017Y-102485819D02*
X193884398Y-102438200D01*
X193884398Y-102438200D02*
X193932017Y-102390580D01*
X193932017Y-102390580D02*
X193932017Y-102485819D01*
X194312969Y-101485819D02*
X194932016Y-101485819D01*
X194932016Y-101485819D02*
X194598683Y-101866771D01*
X194598683Y-101866771D02*
X194741540Y-101866771D01*
X194741540Y-101866771D02*
X194836778Y-101914390D01*
X194836778Y-101914390D02*
X194884397Y-101962009D01*
X194884397Y-101962009D02*
X194932016Y-102057247D01*
X194932016Y-102057247D02*
X194932016Y-102295342D01*
X194932016Y-102295342D02*
X194884397Y-102390580D01*
X194884397Y-102390580D02*
X194836778Y-102438200D01*
X194836778Y-102438200D02*
X194741540Y-102485819D01*
X194741540Y-102485819D02*
X194455826Y-102485819D01*
X194455826Y-102485819D02*
X194360588Y-102438200D01*
X194360588Y-102438200D02*
X194312969Y-102390580D01*
X195265350Y-102819152D02*
X195503445Y-102819152D01*
X195503445Y-102819152D02*
X195503445Y-101390580D01*
X195503445Y-101390580D02*
X195265350Y-101390580D01*
X185201160Y-86341057D02*
X185248779Y-86293438D01*
X185248779Y-86293438D02*
X185344017Y-86245819D01*
X185344017Y-86245819D02*
X185582112Y-86245819D01*
X185582112Y-86245819D02*
X185677350Y-86293438D01*
X185677350Y-86293438D02*
X185724969Y-86341057D01*
X185724969Y-86341057D02*
X185772588Y-86436295D01*
X185772588Y-86436295D02*
X185772588Y-86531533D01*
X185772588Y-86531533D02*
X185724969Y-86674390D01*
X185724969Y-86674390D02*
X185153541Y-87245819D01*
X185153541Y-87245819D02*
X185772588Y-87245819D01*
X178308095Y-84036819D02*
X178308095Y-84846342D01*
X178308095Y-84846342D02*
X178355714Y-84941580D01*
X178355714Y-84941580D02*
X178403333Y-84989200D01*
X178403333Y-84989200D02*
X178498571Y-85036819D01*
X178498571Y-85036819D02*
X178689047Y-85036819D01*
X178689047Y-85036819D02*
X178784285Y-84989200D01*
X178784285Y-84989200D02*
X178831904Y-84941580D01*
X178831904Y-84941580D02*
X178879523Y-84846342D01*
X178879523Y-84846342D02*
X178879523Y-84036819D01*
X179879523Y-85036819D02*
X179308095Y-85036819D01*
X179593809Y-85036819D02*
X179593809Y-84036819D01*
X179593809Y-84036819D02*
X179498571Y-84179676D01*
X179498571Y-84179676D02*
X179403333Y-84274914D01*
X179403333Y-84274914D02*
X179308095Y-84322533D01*
X191008095Y-84036819D02*
X191008095Y-84846342D01*
X191008095Y-84846342D02*
X191055714Y-84941580D01*
X191055714Y-84941580D02*
X191103333Y-84989200D01*
X191103333Y-84989200D02*
X191198571Y-85036819D01*
X191198571Y-85036819D02*
X191389047Y-85036819D01*
X191389047Y-85036819D02*
X191484285Y-84989200D01*
X191484285Y-84989200D02*
X191531904Y-84941580D01*
X191531904Y-84941580D02*
X191579523Y-84846342D01*
X191579523Y-84846342D02*
X191579523Y-84036819D01*
X192008095Y-84132057D02*
X192055714Y-84084438D01*
X192055714Y-84084438D02*
X192150952Y-84036819D01*
X192150952Y-84036819D02*
X192389047Y-84036819D01*
X192389047Y-84036819D02*
X192484285Y-84084438D01*
X192484285Y-84084438D02*
X192531904Y-84132057D01*
X192531904Y-84132057D02*
X192579523Y-84227295D01*
X192579523Y-84227295D02*
X192579523Y-84322533D01*
X192579523Y-84322533D02*
X192531904Y-84465390D01*
X192531904Y-84465390D02*
X191960476Y-85036819D01*
X191960476Y-85036819D02*
X192579523Y-85036819D01*
D12*
%TO.C,D4*%
X184460000Y-85980000D02*
X186380000Y-85980000D01*
X186380000Y-85980000D02*
X186380000Y-83120000D01*
X184460000Y-83120000D02*
X184460000Y-85980000D01*
%TO.C,D2*%
X184460000Y-95716666D02*
X186380000Y-95716666D01*
X186380000Y-95716666D02*
X186380000Y-92856666D01*
X184460000Y-92856666D02*
X184460000Y-95716666D01*
%TO.C,D3*%
X184460000Y-90848333D02*
X186380000Y-90848333D01*
X186380000Y-90848333D02*
X186380000Y-87988333D01*
X184460000Y-87988333D02*
X184460000Y-90848333D01*
%TO.C,U1*%
X176420000Y-82490000D02*
X176420000Y-100390000D01*
X176420000Y-100390000D02*
X181720000Y-100390000D01*
X178070000Y-82490000D02*
X176420000Y-82490000D01*
X181720000Y-82490000D02*
X180070000Y-82490000D01*
X181720000Y-100390000D02*
X181720000Y-82490000D01*
X178070000Y-82490000D02*
G75*
G03*
X180070000Y-82490000I1000000J0D01*
G01*
%TO.C,U2*%
X189120000Y-82490000D02*
X189120000Y-100390000D01*
X189120000Y-100390000D02*
X194420000Y-100390000D01*
X190770000Y-82490000D02*
X189120000Y-82490000D01*
X194420000Y-82490000D02*
X192770000Y-82490000D01*
X194420000Y-100390000D02*
X194420000Y-82490000D01*
X190770000Y-82490000D02*
G75*
G03*
X192770000Y-82490000I1000000J0D01*
G01*
%TO.C,D1*%
X184460000Y-100585000D02*
X186380000Y-100585000D01*
X186380000Y-100585000D02*
X186380000Y-97725000D01*
X184460000Y-97725000D02*
X184460000Y-100585000D01*
%TD*%
M02*
