%TF.GenerationSoftware,KiCad,Pcbnew,7.0.8-7.0.8~ubuntu23.04.1*%
%TF.CreationDate,2023-10-19T21:44:50+04:00*%
%TF.ProjectId,async_counter,6173796e-635f-4636-9f75-6e7465722e6b,rev?*%
%TF.SameCoordinates,Original*%
%TF.FileFunction,Legend,Bot*%
%TF.FilePolarity,Positive*%
%FSLAX46Y46*%
G04 Gerber Fmt 4.6, Leading zero omitted, Abs format (unit mm)*
G04 Created by KiCad (PCBNEW 7.0.8-7.0.8~ubuntu23.04.1) date 2023-10-19 21:44:50*
%MOMM*%
%LPD*%
G01*
G04 APERTURE LIST*
%ADD10C,0.150000*%
%ADD11C,0.120000*%
G04 APERTURE END LIST*
D10*
X178734819Y-101266666D02*
X179449104Y-101266666D01*
X179449104Y-101266666D02*
X179591961Y-101219047D01*
X179591961Y-101219047D02*
X179687200Y-101123809D01*
X179687200Y-101123809D02*
X179734819Y-100980952D01*
X179734819Y-100980952D02*
X179734819Y-100885714D01*
X178830057Y-101695238D02*
X178782438Y-101742857D01*
X178782438Y-101742857D02*
X178734819Y-101838095D01*
X178734819Y-101838095D02*
X178734819Y-102076190D01*
X178734819Y-102076190D02*
X178782438Y-102171428D01*
X178782438Y-102171428D02*
X178830057Y-102219047D01*
X178830057Y-102219047D02*
X178925295Y-102266666D01*
X178925295Y-102266666D02*
X179020533Y-102266666D01*
X179020533Y-102266666D02*
X179163390Y-102219047D01*
X179163390Y-102219047D02*
X179734819Y-101647619D01*
X179734819Y-101647619D02*
X179734819Y-102266666D01*
X191926666Y-90244819D02*
X192259999Y-89768628D01*
X192498094Y-90244819D02*
X192498094Y-89244819D01*
X192498094Y-89244819D02*
X192117142Y-89244819D01*
X192117142Y-89244819D02*
X192021904Y-89292438D01*
X192021904Y-89292438D02*
X191974285Y-89340057D01*
X191974285Y-89340057D02*
X191926666Y-89435295D01*
X191926666Y-89435295D02*
X191926666Y-89578152D01*
X191926666Y-89578152D02*
X191974285Y-89673390D01*
X191974285Y-89673390D02*
X192021904Y-89721009D01*
X192021904Y-89721009D02*
X192117142Y-89768628D01*
X192117142Y-89768628D02*
X192498094Y-89768628D01*
X191069523Y-89578152D02*
X191069523Y-90244819D01*
X191307618Y-89197200D02*
X191545713Y-89911485D01*
X191545713Y-89911485D02*
X190926666Y-89911485D01*
X191926666Y-85039580D02*
X191974285Y-85087200D01*
X191974285Y-85087200D02*
X192117142Y-85134819D01*
X192117142Y-85134819D02*
X192212380Y-85134819D01*
X192212380Y-85134819D02*
X192355237Y-85087200D01*
X192355237Y-85087200D02*
X192450475Y-84991961D01*
X192450475Y-84991961D02*
X192498094Y-84896723D01*
X192498094Y-84896723D02*
X192545713Y-84706247D01*
X192545713Y-84706247D02*
X192545713Y-84563390D01*
X192545713Y-84563390D02*
X192498094Y-84372914D01*
X192498094Y-84372914D02*
X192450475Y-84277676D01*
X192450475Y-84277676D02*
X192355237Y-84182438D01*
X192355237Y-84182438D02*
X192212380Y-84134819D01*
X192212380Y-84134819D02*
X192117142Y-84134819D01*
X192117142Y-84134819D02*
X191974285Y-84182438D01*
X191974285Y-84182438D02*
X191926666Y-84230057D01*
X191545713Y-84230057D02*
X191498094Y-84182438D01*
X191498094Y-84182438D02*
X191402856Y-84134819D01*
X191402856Y-84134819D02*
X191164761Y-84134819D01*
X191164761Y-84134819D02*
X191069523Y-84182438D01*
X191069523Y-84182438D02*
X191021904Y-84230057D01*
X191021904Y-84230057D02*
X190974285Y-84325295D01*
X190974285Y-84325295D02*
X190974285Y-84420533D01*
X190974285Y-84420533D02*
X191021904Y-84563390D01*
X191021904Y-84563390D02*
X191593332Y-85134819D01*
X191593332Y-85134819D02*
X190974285Y-85134819D01*
X191926666Y-95324819D02*
X192259999Y-94848628D01*
X192498094Y-95324819D02*
X192498094Y-94324819D01*
X192498094Y-94324819D02*
X192117142Y-94324819D01*
X192117142Y-94324819D02*
X192021904Y-94372438D01*
X192021904Y-94372438D02*
X191974285Y-94420057D01*
X191974285Y-94420057D02*
X191926666Y-94515295D01*
X191926666Y-94515295D02*
X191926666Y-94658152D01*
X191926666Y-94658152D02*
X191974285Y-94753390D01*
X191974285Y-94753390D02*
X192021904Y-94801009D01*
X192021904Y-94801009D02*
X192117142Y-94848628D01*
X192117142Y-94848628D02*
X192498094Y-94848628D01*
X191593332Y-94324819D02*
X190974285Y-94324819D01*
X190974285Y-94324819D02*
X191307618Y-94705771D01*
X191307618Y-94705771D02*
X191164761Y-94705771D01*
X191164761Y-94705771D02*
X191069523Y-94753390D01*
X191069523Y-94753390D02*
X191021904Y-94801009D01*
X191021904Y-94801009D02*
X190974285Y-94896247D01*
X190974285Y-94896247D02*
X190974285Y-95134342D01*
X190974285Y-95134342D02*
X191021904Y-95229580D01*
X191021904Y-95229580D02*
X191069523Y-95277200D01*
X191069523Y-95277200D02*
X191164761Y-95324819D01*
X191164761Y-95324819D02*
X191450475Y-95324819D01*
X191450475Y-95324819D02*
X191545713Y-95277200D01*
X191545713Y-95277200D02*
X191593332Y-95229580D01*
X179226666Y-95324819D02*
X179559999Y-94848628D01*
X179798094Y-95324819D02*
X179798094Y-94324819D01*
X179798094Y-94324819D02*
X179417142Y-94324819D01*
X179417142Y-94324819D02*
X179321904Y-94372438D01*
X179321904Y-94372438D02*
X179274285Y-94420057D01*
X179274285Y-94420057D02*
X179226666Y-94515295D01*
X179226666Y-94515295D02*
X179226666Y-94658152D01*
X179226666Y-94658152D02*
X179274285Y-94753390D01*
X179274285Y-94753390D02*
X179321904Y-94801009D01*
X179321904Y-94801009D02*
X179417142Y-94848628D01*
X179417142Y-94848628D02*
X179798094Y-94848628D01*
X178274285Y-95324819D02*
X178845713Y-95324819D01*
X178559999Y-95324819D02*
X178559999Y-94324819D01*
X178559999Y-94324819D02*
X178655237Y-94467676D01*
X178655237Y-94467676D02*
X178750475Y-94562914D01*
X178750475Y-94562914D02*
X178845713Y-94610533D01*
X179226666Y-90244819D02*
X179559999Y-89768628D01*
X179798094Y-90244819D02*
X179798094Y-89244819D01*
X179798094Y-89244819D02*
X179417142Y-89244819D01*
X179417142Y-89244819D02*
X179321904Y-89292438D01*
X179321904Y-89292438D02*
X179274285Y-89340057D01*
X179274285Y-89340057D02*
X179226666Y-89435295D01*
X179226666Y-89435295D02*
X179226666Y-89578152D01*
X179226666Y-89578152D02*
X179274285Y-89673390D01*
X179274285Y-89673390D02*
X179321904Y-89721009D01*
X179321904Y-89721009D02*
X179417142Y-89768628D01*
X179417142Y-89768628D02*
X179798094Y-89768628D01*
X178845713Y-89340057D02*
X178798094Y-89292438D01*
X178798094Y-89292438D02*
X178702856Y-89244819D01*
X178702856Y-89244819D02*
X178464761Y-89244819D01*
X178464761Y-89244819D02*
X178369523Y-89292438D01*
X178369523Y-89292438D02*
X178321904Y-89340057D01*
X178321904Y-89340057D02*
X178274285Y-89435295D01*
X178274285Y-89435295D02*
X178274285Y-89530533D01*
X178274285Y-89530533D02*
X178321904Y-89673390D01*
X178321904Y-89673390D02*
X178893332Y-90244819D01*
X178893332Y-90244819D02*
X178274285Y-90244819D01*
X178734819Y-80946666D02*
X179449104Y-80946666D01*
X179449104Y-80946666D02*
X179591961Y-80899047D01*
X179591961Y-80899047D02*
X179687200Y-80803809D01*
X179687200Y-80803809D02*
X179734819Y-80660952D01*
X179734819Y-80660952D02*
X179734819Y-80565714D01*
X179734819Y-81946666D02*
X179734819Y-81375238D01*
X179734819Y-81660952D02*
X178734819Y-81660952D01*
X178734819Y-81660952D02*
X178877676Y-81565714D01*
X178877676Y-81565714D02*
X178972914Y-81470476D01*
X178972914Y-81470476D02*
X179020533Y-81375238D01*
X179226666Y-85039580D02*
X179274285Y-85087200D01*
X179274285Y-85087200D02*
X179417142Y-85134819D01*
X179417142Y-85134819D02*
X179512380Y-85134819D01*
X179512380Y-85134819D02*
X179655237Y-85087200D01*
X179655237Y-85087200D02*
X179750475Y-84991961D01*
X179750475Y-84991961D02*
X179798094Y-84896723D01*
X179798094Y-84896723D02*
X179845713Y-84706247D01*
X179845713Y-84706247D02*
X179845713Y-84563390D01*
X179845713Y-84563390D02*
X179798094Y-84372914D01*
X179798094Y-84372914D02*
X179750475Y-84277676D01*
X179750475Y-84277676D02*
X179655237Y-84182438D01*
X179655237Y-84182438D02*
X179512380Y-84134819D01*
X179512380Y-84134819D02*
X179417142Y-84134819D01*
X179417142Y-84134819D02*
X179274285Y-84182438D01*
X179274285Y-84182438D02*
X179226666Y-84230057D01*
X178274285Y-85134819D02*
X178845713Y-85134819D01*
X178559999Y-85134819D02*
X178559999Y-84134819D01*
X178559999Y-84134819D02*
X178655237Y-84277676D01*
X178655237Y-84277676D02*
X178750475Y-84372914D01*
X178750475Y-84372914D02*
X178845713Y-84420533D01*
D11*
%TO.C,J2*%
X190560000Y-100270000D02*
X190560000Y-102930000D01*
X182880000Y-100270000D02*
X190560000Y-100270000D01*
X182880000Y-100270000D02*
X182880000Y-102930000D01*
X181610000Y-100270000D02*
X180280000Y-100270000D01*
X180280000Y-100270000D02*
X180280000Y-101600000D01*
X182880000Y-102930000D02*
X190560000Y-102930000D01*
%TO.C,R4*%
X191987064Y-92175000D02*
X191532936Y-92175000D01*
X191987064Y-90705000D02*
X191532936Y-90705000D01*
%TO.C,C2*%
X192021252Y-87095000D02*
X191498748Y-87095000D01*
X192021252Y-85625000D02*
X191498748Y-85625000D01*
%TO.C,R3*%
X191987064Y-97255000D02*
X191532936Y-97255000D01*
X191987064Y-95785000D02*
X191532936Y-95785000D01*
%TO.C,R1*%
X179287064Y-97255000D02*
X178832936Y-97255000D01*
X179287064Y-95785000D02*
X178832936Y-95785000D01*
%TO.C,R2*%
X179287064Y-92175000D02*
X178832936Y-92175000D01*
X179287064Y-90705000D02*
X178832936Y-90705000D01*
%TO.C,J1*%
X190560000Y-79950000D02*
X190560000Y-82610000D01*
X182880000Y-79950000D02*
X190560000Y-79950000D01*
X182880000Y-79950000D02*
X182880000Y-82610000D01*
X181610000Y-79950000D02*
X180280000Y-79950000D01*
X180280000Y-79950000D02*
X180280000Y-81280000D01*
X182880000Y-82610000D02*
X190560000Y-82610000D01*
%TO.C,C1*%
X179321252Y-87095000D02*
X178798748Y-87095000D01*
X179321252Y-85625000D02*
X178798748Y-85625000D01*
%TD*%
M02*
