%TF.GenerationSoftware,KiCad,Pcbnew,7.0.8-7.0.8~ubuntu23.04.1*%
%TF.CreationDate,2023-10-19T21:44:50+04:00*%
%TF.ProjectId,async_counter,6173796e-635f-4636-9f75-6e7465722e6b,rev?*%
%TF.SameCoordinates,Original*%
%TF.FileFunction,Copper,L1,Top*%
%TF.FilePolarity,Positive*%
%FSLAX46Y46*%
G04 Gerber Fmt 4.6, Leading zero omitted, Abs format (unit mm)*
G04 Created by KiCad (PCBNEW 7.0.8-7.0.8~ubuntu23.04.1) date 2023-10-19 21:44:50*
%MOMM*%
%LPD*%
G01*
G04 APERTURE LIST*
G04 Aperture macros list*
%AMRoundRect*
0 Rectangle with rounded corners*
0 $1 Rounding radius*
0 $2 $3 $4 $5 $6 $7 $8 $9 X,Y pos of 4 corners*
0 Add a 4 corners polygon primitive as box body*
4,1,4,$2,$3,$4,$5,$6,$7,$8,$9,$2,$3,0*
0 Add four circle primitives for the rounded corners*
1,1,$1+$1,$2,$3*
1,1,$1+$1,$4,$5*
1,1,$1+$1,$6,$7*
1,1,$1+$1,$8,$9*
0 Add four rect primitives between the rounded corners*
20,1,$1+$1,$2,$3,$4,$5,0*
20,1,$1+$1,$4,$5,$6,$7,0*
20,1,$1+$1,$6,$7,$8,$9,0*
20,1,$1+$1,$8,$9,$2,$3,0*%
G04 Aperture macros list end*
%TA.AperFunction,SMDPad,CuDef*%
%ADD10RoundRect,0.250000X0.450000X-0.325000X0.450000X0.325000X-0.450000X0.325000X-0.450000X-0.325000X0*%
%TD*%
%TA.AperFunction,ComponentPad*%
%ADD11R,1.600000X1.600000*%
%TD*%
%TA.AperFunction,ComponentPad*%
%ADD12O,1.600000X1.600000*%
%TD*%
%TA.AperFunction,ComponentPad*%
%ADD13R,1.700000X1.700000*%
%TD*%
%TA.AperFunction,ComponentPad*%
%ADD14O,1.700000X1.700000*%
%TD*%
%TA.AperFunction,ViaPad*%
%ADD15C,0.800000*%
%TD*%
%TA.AperFunction,Conductor*%
%ADD16C,0.250000*%
%TD*%
%TA.AperFunction,Conductor*%
%ADD17C,0.500000*%
%TD*%
G04 APERTURE END LIST*
D10*
%TO.P,D4,1,K*%
%TO.N,GND*%
X185420000Y-85145000D03*
%TO.P,D4,2,A*%
%TO.N,Net-(D4-A)*%
X185420000Y-83095000D03*
%TD*%
%TO.P,D2,1,K*%
%TO.N,GND*%
X185420000Y-94881666D03*
%TO.P,D2,2,A*%
%TO.N,Net-(D2-A)*%
X185420000Y-92831666D03*
%TD*%
%TO.P,D3,1,K*%
%TO.N,GND*%
X185420000Y-90013333D03*
%TO.P,D3,2,A*%
%TO.N,Net-(D3-A)*%
X185420000Y-87963333D03*
%TD*%
D11*
%TO.P,U1,1,J*%
%TO.N,VCC*%
X175260000Y-83820000D03*
D12*
%TO.P,U1,2,~{Q}*%
%TO.N,unconnected-(U1A-~{Q}-Pad2)*%
X175260000Y-86360000D03*
%TO.P,U1,3,Q*%
%TO.N,/D_{0}*%
X175260000Y-88900000D03*
%TO.P,U1,4,K*%
%TO.N,VCC*%
X175260000Y-91440000D03*
%TO.P,U1,5,Q*%
%TO.N,/D_{1}*%
X175260000Y-93980000D03*
%TO.P,U1,6,~{Q}*%
%TO.N,unconnected-(U1B-~{Q}-Pad6)*%
X175260000Y-96520000D03*
%TO.P,U1,7,GND*%
%TO.N,GND*%
X175260000Y-99060000D03*
%TO.P,U1,8,J*%
%TO.N,VCC*%
X182880000Y-99060000D03*
%TO.P,U1,9,C*%
%TO.N,/D_{0}*%
X182880000Y-96520000D03*
%TO.P,U1,10,~{R}*%
%TO.N,/~{CLR}*%
X182880000Y-93980000D03*
%TO.P,U1,11,K*%
%TO.N,VCC*%
X182880000Y-91440000D03*
%TO.P,U1,12,C*%
%TO.N,/CLK*%
X182880000Y-88900000D03*
%TO.P,U1,13,~{R}*%
%TO.N,/~{CLR}*%
X182880000Y-86360000D03*
%TO.P,U1,14,VCC*%
%TO.N,VCC*%
X182880000Y-83820000D03*
%TD*%
D11*
%TO.P,U2,1,J*%
%TO.N,VCC*%
X187960000Y-83820000D03*
D12*
%TO.P,U2,2,~{Q}*%
%TO.N,unconnected-(U2A-~{Q}-Pad2)*%
X187960000Y-86360000D03*
%TO.P,U2,3,Q*%
%TO.N,/D_{2}*%
X187960000Y-88900000D03*
%TO.P,U2,4,K*%
%TO.N,VCC*%
X187960000Y-91440000D03*
%TO.P,U2,5,Q*%
%TO.N,/D_{3}*%
X187960000Y-93980000D03*
%TO.P,U2,6,~{Q}*%
%TO.N,unconnected-(U2B-~{Q}-Pad6)*%
X187960000Y-96520000D03*
%TO.P,U2,7,GND*%
%TO.N,GND*%
X187960000Y-99060000D03*
%TO.P,U2,8,J*%
%TO.N,VCC*%
X195580000Y-99060000D03*
%TO.P,U2,9,C*%
%TO.N,/D_{2}*%
X195580000Y-96520000D03*
%TO.P,U2,10,~{R}*%
%TO.N,/~{CLR}*%
X195580000Y-93980000D03*
%TO.P,U2,11,K*%
%TO.N,VCC*%
X195580000Y-91440000D03*
%TO.P,U2,12,C*%
%TO.N,/D_{1}*%
X195580000Y-88900000D03*
%TO.P,U2,13,~{R}*%
%TO.N,/~{CLR}*%
X195580000Y-86360000D03*
%TO.P,U2,14,VCC*%
%TO.N,VCC*%
X195580000Y-83820000D03*
%TD*%
D10*
%TO.P,D1,1,K*%
%TO.N,GND*%
X185420000Y-99750000D03*
%TO.P,D1,2,A*%
%TO.N,Net-(D1-A)*%
X185420000Y-97700000D03*
%TD*%
D13*
%TO.P,J2,1,Pin_1*%
%TO.N,/D_{0}*%
X181610000Y-101600000D03*
D14*
%TO.P,J2,2,Pin_2*%
%TO.N,/D_{1}*%
X184150000Y-101600000D03*
%TO.P,J2,3,Pin_3*%
%TO.N,/D_{2}*%
X186690000Y-101600000D03*
%TO.P,J2,4,Pin_4*%
%TO.N,/D_{3}*%
X189230000Y-101600000D03*
%TD*%
D13*
%TO.P,J1,1,Pin_1*%
%TO.N,VCC*%
X181610000Y-81280000D03*
D14*
%TO.P,J1,2,Pin_2*%
%TO.N,/CLK*%
X184150000Y-81280000D03*
%TO.P,J1,3,Pin_3*%
%TO.N,/~{CLR}*%
X186690000Y-81280000D03*
%TO.P,J1,4,Pin_4*%
%TO.N,GND*%
X189230000Y-81280000D03*
%TD*%
D15*
%TO.N,GND*%
X186486800Y-89001600D03*
X191262000Y-100076000D03*
X191770000Y-88900000D03*
X175260000Y-100838000D03*
X179070000Y-101600000D03*
X177292000Y-100838000D03*
X185928000Y-96393000D03*
X179832000Y-83312000D03*
X194564000Y-100584000D03*
X183896000Y-100076000D03*
X193040000Y-102616000D03*
%TO.N,Net-(D1-A)*%
X179324000Y-98552000D03*
%TO.N,Net-(D2-A)*%
X178054000Y-88900000D03*
%TO.N,Net-(D3-A)*%
X186110500Y-91440000D03*
%TO.N,Net-(D4-A)*%
X189865000Y-84455000D03*
%TO.N,/~{CLR}*%
X193675000Y-88265000D03*
X180340000Y-88900000D03*
X186436000Y-86868000D03*
X191770000Y-82550000D03*
%TO.N,/D_{2}*%
X190500000Y-94488000D03*
%TD*%
D16*
%TO.N,VCC*%
X189140000Y-90260000D02*
X189140000Y-85000000D01*
X175260000Y-82550000D02*
X176530000Y-81280000D01*
X175260000Y-83820000D02*
X175260000Y-82550000D01*
X194455000Y-92565000D02*
X195580000Y-91440000D01*
D17*
X181610000Y-81280000D02*
X183015000Y-79875000D01*
D16*
X176530000Y-81280000D02*
X181610000Y-81280000D01*
X187960000Y-91440000D02*
X189140000Y-90260000D01*
X189140000Y-85000000D02*
X187960000Y-83820000D01*
X183055000Y-83995000D02*
X182880000Y-83820000D01*
D17*
X194175000Y-79875000D02*
X195580000Y-81280000D01*
D16*
X187960000Y-83820000D02*
X187785000Y-83995000D01*
X195580000Y-99060000D02*
X194455000Y-97935000D01*
X194455000Y-97935000D02*
X194455000Y-92565000D01*
D17*
X181610000Y-82550000D02*
X182880000Y-83820000D01*
X183015000Y-79875000D02*
X194175000Y-79875000D01*
X195580000Y-81280000D02*
X195580000Y-83820000D01*
D16*
X187785000Y-83995000D02*
X183055000Y-83995000D01*
D17*
X181610000Y-81280000D02*
X181610000Y-82550000D01*
D16*
%TO.N,GND*%
X185420000Y-85145000D02*
X181665000Y-85145000D01*
X185420000Y-90013333D02*
X185475067Y-90013333D01*
X181665000Y-85145000D02*
X179832000Y-83312000D01*
X185475067Y-90013333D02*
X186486800Y-89001600D01*
%TO.N,Net-(D1-A)*%
X185420000Y-97700000D02*
X180176000Y-97700000D01*
X180176000Y-97700000D02*
X179324000Y-98552000D01*
%TO.N,Net-(D2-A)*%
X181985666Y-92831666D02*
X178054000Y-88900000D01*
X185420000Y-92831666D02*
X181985666Y-92831666D01*
%TO.N,Net-(D3-A)*%
X185258493Y-91440000D02*
X186110500Y-91440000D01*
X184395000Y-90576507D02*
X184395000Y-88988333D01*
X184395000Y-90576507D02*
X185258493Y-91440000D01*
X184395000Y-88988333D02*
X185420000Y-87963333D01*
%TO.N,Net-(D4-A)*%
X189865000Y-84455000D02*
X189865000Y-83665380D01*
X189865000Y-83665380D02*
X188749620Y-82550000D01*
X188749620Y-82550000D02*
X185965000Y-82550000D01*
X185965000Y-82550000D02*
X185420000Y-83095000D01*
%TO.N,/~{CLR}*%
X184658000Y-86360000D02*
X182880000Y-86360000D01*
X191770000Y-82550000D02*
X195580000Y-86360000D01*
X180340000Y-88900000D02*
X182880000Y-86360000D01*
X185166000Y-86868000D02*
X186436000Y-86868000D01*
X184658000Y-86360000D02*
X185166000Y-86868000D01*
X195580000Y-86360000D02*
X193675000Y-88265000D01*
%TO.N,/D_{0}*%
X176385000Y-90025000D02*
X175260000Y-88900000D01*
X176385000Y-91050305D02*
X176385000Y-90025000D01*
X181854695Y-96520000D02*
X176385000Y-91050305D01*
X182880000Y-96520000D02*
X181854695Y-96520000D01*
%TO.N,/D_{1}*%
X184150000Y-101600000D02*
X185674000Y-103124000D01*
X176530000Y-95250000D02*
X175260000Y-93980000D01*
X193130000Y-100748000D02*
X193130000Y-91350000D01*
X182975000Y-100425000D02*
X179165000Y-100425000D01*
X176530000Y-97790000D02*
X176530000Y-95250000D01*
X193130000Y-91350000D02*
X195580000Y-88900000D01*
X185674000Y-103124000D02*
X190754000Y-103124000D01*
X179165000Y-100425000D02*
X176530000Y-97790000D01*
X190754000Y-103124000D02*
X193130000Y-100748000D01*
X184150000Y-101600000D02*
X182975000Y-100425000D01*
%TO.N,/D_{2}*%
X188722000Y-92710000D02*
X190500000Y-94488000D01*
X186835000Y-90025000D02*
X186835000Y-92093000D01*
X186835000Y-92093000D02*
X187452000Y-92710000D01*
X187960000Y-88900000D02*
X186835000Y-90025000D01*
X187452000Y-92710000D02*
X188722000Y-92710000D01*
%TO.N,/D_{3}*%
X186835000Y-95105000D02*
X187960000Y-93980000D01*
X186835000Y-100055000D02*
X186835000Y-95105000D01*
X188380000Y-101600000D02*
X186835000Y-100055000D01*
X189230000Y-101600000D02*
X188380000Y-101600000D01*
%TD*%
%TA.AperFunction,Conductor*%
%TO.N,GND*%
G36*
X176693792Y-98838382D02*
G01*
X178664194Y-100808784D01*
X178674019Y-100821048D01*
X178674240Y-100820866D01*
X178679210Y-100826873D01*
X178679213Y-100826876D01*
X178679214Y-100826877D01*
X178729651Y-100874241D01*
X178750530Y-100895120D01*
X178756004Y-100899366D01*
X178760442Y-100903156D01*
X178794418Y-100935062D01*
X178794422Y-100935064D01*
X178811973Y-100944713D01*
X178828231Y-100955392D01*
X178844064Y-100967674D01*
X178866015Y-100977172D01*
X178886837Y-100986183D01*
X178892081Y-100988752D01*
X178932908Y-101011197D01*
X178952312Y-101016179D01*
X178970710Y-101022478D01*
X178989105Y-101030438D01*
X179035129Y-101037726D01*
X179040832Y-101038907D01*
X179085981Y-101050500D01*
X179106016Y-101050500D01*
X179125413Y-101052026D01*
X179145196Y-101055160D01*
X179191584Y-101050775D01*
X179197422Y-101050500D01*
X180135500Y-101050500D01*
X180202539Y-101070185D01*
X180248294Y-101122989D01*
X180259500Y-101174500D01*
X180259500Y-102497870D01*
X180259501Y-102497876D01*
X180265908Y-102557483D01*
X180316202Y-102692328D01*
X180316206Y-102692335D01*
X180402452Y-102807544D01*
X180402455Y-102807547D01*
X180517664Y-102893793D01*
X180517671Y-102893797D01*
X180652517Y-102944091D01*
X180652516Y-102944091D01*
X180659444Y-102944835D01*
X180712127Y-102950500D01*
X182507872Y-102950499D01*
X182567483Y-102944091D01*
X182702331Y-102893796D01*
X182817546Y-102807546D01*
X182903796Y-102692331D01*
X182952810Y-102560916D01*
X182994681Y-102504984D01*
X183060145Y-102480566D01*
X183128418Y-102495417D01*
X183156673Y-102516569D01*
X183278599Y-102638495D01*
X183375384Y-102706265D01*
X183472165Y-102774032D01*
X183472167Y-102774033D01*
X183472170Y-102774035D01*
X183686337Y-102873903D01*
X183914592Y-102935063D01*
X184091034Y-102950500D01*
X184149999Y-102955659D01*
X184150000Y-102955659D01*
X184150001Y-102955659D01*
X184208966Y-102950500D01*
X184385408Y-102935063D01*
X184485873Y-102908143D01*
X184555722Y-102909806D01*
X184605647Y-102940237D01*
X184708229Y-103042819D01*
X184741714Y-103104142D01*
X184736730Y-103173834D01*
X184694858Y-103229767D01*
X184629394Y-103254184D01*
X184620548Y-103254500D01*
X175897214Y-103254500D01*
X175892791Y-103254342D01*
X175870144Y-103252722D01*
X175668384Y-103238292D01*
X175650872Y-103235774D01*
X175437543Y-103189367D01*
X175420567Y-103184383D01*
X175216002Y-103108084D01*
X175199909Y-103100734D01*
X175008292Y-102996103D01*
X174993409Y-102986538D01*
X174818632Y-102855702D01*
X174805261Y-102844116D01*
X174650883Y-102689738D01*
X174639297Y-102676367D01*
X174508461Y-102501590D01*
X174498896Y-102486707D01*
X174447629Y-102392819D01*
X174394262Y-102295084D01*
X174386918Y-102279004D01*
X174310613Y-102074424D01*
X174305634Y-102057465D01*
X174259224Y-101844121D01*
X174256707Y-101826615D01*
X174240658Y-101602210D01*
X174240500Y-101597786D01*
X174240500Y-100171346D01*
X174260185Y-100104307D01*
X174312989Y-100058552D01*
X174382147Y-100048608D01*
X174435624Y-100069772D01*
X174607510Y-100190129D01*
X174607516Y-100190133D01*
X174813673Y-100286265D01*
X174813682Y-100286269D01*
X175009999Y-100338872D01*
X175010000Y-100338871D01*
X175010000Y-99375686D01*
X175021955Y-99387641D01*
X175134852Y-99445165D01*
X175228519Y-99460000D01*
X175291481Y-99460000D01*
X175385148Y-99445165D01*
X175498045Y-99387641D01*
X175510000Y-99375686D01*
X175510000Y-100338872D01*
X175706317Y-100286269D01*
X175706326Y-100286265D01*
X175912482Y-100190134D01*
X176098820Y-100059657D01*
X176259657Y-99898820D01*
X176390134Y-99712482D01*
X176486265Y-99506326D01*
X176486269Y-99506317D01*
X176538872Y-99310000D01*
X175575686Y-99310000D01*
X175587641Y-99298045D01*
X175645165Y-99185148D01*
X175664986Y-99060000D01*
X175645165Y-98934852D01*
X175587641Y-98821955D01*
X175575686Y-98810000D01*
X176563299Y-98810000D01*
X176564151Y-98809378D01*
X176633897Y-98805216D01*
X176693792Y-98838382D01*
G37*
%TD.AperFunction*%
%TA.AperFunction,Conductor*%
G36*
X193960703Y-98325739D02*
G01*
X193967181Y-98331771D01*
X193970992Y-98335582D01*
X193983628Y-98350376D01*
X193995405Y-98366586D01*
X193995406Y-98366587D01*
X194031309Y-98396288D01*
X194035620Y-98400210D01*
X194222519Y-98587110D01*
X194280586Y-98645177D01*
X194314071Y-98706500D01*
X194312680Y-98764949D01*
X194294367Y-98833296D01*
X194294364Y-98833313D01*
X194274532Y-99059999D01*
X194274532Y-99060001D01*
X194294364Y-99286686D01*
X194294366Y-99286697D01*
X194353258Y-99506488D01*
X194353261Y-99506497D01*
X194449431Y-99712732D01*
X194449432Y-99712734D01*
X194579954Y-99899141D01*
X194740858Y-100060045D01*
X194740861Y-100060047D01*
X194927266Y-100190568D01*
X195133504Y-100286739D01*
X195353308Y-100345635D01*
X195515230Y-100359801D01*
X195579998Y-100365468D01*
X195580000Y-100365468D01*
X195580002Y-100365468D01*
X195636673Y-100360509D01*
X195806692Y-100345635D01*
X196026496Y-100286739D01*
X196232734Y-100190568D01*
X196404378Y-100070382D01*
X196470583Y-100048056D01*
X196538350Y-100065066D01*
X196586163Y-100116015D01*
X196599500Y-100171958D01*
X196599500Y-101597786D01*
X196599342Y-101602210D01*
X196583292Y-101826615D01*
X196580774Y-101844127D01*
X196534367Y-102057456D01*
X196529383Y-102074432D01*
X196453084Y-102278997D01*
X196445734Y-102295090D01*
X196341103Y-102486707D01*
X196331538Y-102501590D01*
X196200702Y-102676367D01*
X196189116Y-102689738D01*
X196034738Y-102844116D01*
X196021367Y-102855702D01*
X195846590Y-102986538D01*
X195831707Y-102996103D01*
X195640090Y-103100734D01*
X195623997Y-103108084D01*
X195419432Y-103184383D01*
X195402456Y-103189367D01*
X195189127Y-103235774D01*
X195171615Y-103238292D01*
X194967359Y-103252900D01*
X194947208Y-103254342D01*
X194942786Y-103254500D01*
X191807452Y-103254500D01*
X191740413Y-103234815D01*
X191694658Y-103182011D01*
X191684714Y-103112853D01*
X191713739Y-103049297D01*
X191719771Y-103042819D01*
X192538358Y-102224232D01*
X193513788Y-101248801D01*
X193526042Y-101238986D01*
X193525859Y-101238764D01*
X193531866Y-101233792D01*
X193531877Y-101233786D01*
X193562775Y-101200882D01*
X193579227Y-101183364D01*
X193589671Y-101172918D01*
X193600120Y-101162471D01*
X193604379Y-101156978D01*
X193608152Y-101152561D01*
X193640062Y-101118582D01*
X193649713Y-101101024D01*
X193660396Y-101084761D01*
X193672673Y-101068936D01*
X193691185Y-101026153D01*
X193693738Y-101020941D01*
X193716197Y-100980092D01*
X193721180Y-100960680D01*
X193727481Y-100942280D01*
X193735437Y-100923896D01*
X193742729Y-100877852D01*
X193743906Y-100872171D01*
X193755500Y-100827019D01*
X193755500Y-100806983D01*
X193757027Y-100787582D01*
X193760160Y-100767804D01*
X193755775Y-100721415D01*
X193755500Y-100715577D01*
X193755500Y-98419452D01*
X193775185Y-98352413D01*
X193827989Y-98306658D01*
X193897147Y-98296714D01*
X193960703Y-98325739D01*
G37*
%TD.AperFunction*%
%TA.AperFunction,Conductor*%
G36*
X193879809Y-80645185D02*
G01*
X193900451Y-80661819D01*
X194793181Y-81554549D01*
X194826666Y-81615872D01*
X194829500Y-81642230D01*
X194829500Y-82693336D01*
X194809815Y-82760375D01*
X194776625Y-82794910D01*
X194740863Y-82819951D01*
X194579951Y-82980862D01*
X194449432Y-83167265D01*
X194449431Y-83167267D01*
X194353261Y-83373502D01*
X194353258Y-83373511D01*
X194294366Y-83593302D01*
X194294364Y-83593313D01*
X194274532Y-83819998D01*
X194274532Y-83820003D01*
X194278390Y-83864104D01*
X194264623Y-83932603D01*
X194216007Y-83982786D01*
X194147979Y-83998719D01*
X194082135Y-83975343D01*
X194067181Y-83962591D01*
X193502341Y-83397751D01*
X192708960Y-82604369D01*
X192675475Y-82543046D01*
X192673323Y-82529668D01*
X192655674Y-82361744D01*
X192597179Y-82181716D01*
X192502533Y-82017784D01*
X192375871Y-81877112D01*
X192375870Y-81877111D01*
X192222734Y-81765851D01*
X192222729Y-81765848D01*
X192049807Y-81688857D01*
X192049802Y-81688855D01*
X191904001Y-81657865D01*
X191864646Y-81649500D01*
X191675354Y-81649500D01*
X191642897Y-81656398D01*
X191490197Y-81688855D01*
X191490192Y-81688857D01*
X191317270Y-81765848D01*
X191317265Y-81765851D01*
X191164129Y-81877111D01*
X191037466Y-82017785D01*
X190942821Y-82181715D01*
X190942818Y-82181722D01*
X190884327Y-82361740D01*
X190884326Y-82361744D01*
X190864540Y-82550000D01*
X190884326Y-82738256D01*
X190884327Y-82738259D01*
X190942818Y-82918277D01*
X190942821Y-82918284D01*
X191037467Y-83082216D01*
X191121461Y-83175500D01*
X191164129Y-83222888D01*
X191317265Y-83334148D01*
X191317270Y-83334151D01*
X191490192Y-83411142D01*
X191490197Y-83411144D01*
X191675354Y-83450500D01*
X191734548Y-83450500D01*
X191801587Y-83470185D01*
X191822229Y-83486819D01*
X194280586Y-85945176D01*
X194314071Y-86006499D01*
X194312681Y-86064948D01*
X194294365Y-86133307D01*
X194294364Y-86133313D01*
X194284812Y-86242500D01*
X194274532Y-86360000D01*
X194294364Y-86586686D01*
X194294365Y-86586691D01*
X194294366Y-86586697D01*
X194312680Y-86655048D01*
X194311017Y-86724897D01*
X194280586Y-86774821D01*
X193727228Y-87328181D01*
X193665905Y-87361666D01*
X193639547Y-87364500D01*
X193580354Y-87364500D01*
X193547897Y-87371398D01*
X193395197Y-87403855D01*
X193395192Y-87403857D01*
X193222270Y-87480848D01*
X193222265Y-87480851D01*
X193069129Y-87592111D01*
X192942466Y-87732785D01*
X192847821Y-87896715D01*
X192847818Y-87896722D01*
X192789327Y-88076740D01*
X192789326Y-88076744D01*
X192769540Y-88265000D01*
X192789326Y-88453256D01*
X192789327Y-88453259D01*
X192847818Y-88633277D01*
X192847821Y-88633284D01*
X192942467Y-88797216D01*
X193035016Y-88900002D01*
X193069129Y-88937888D01*
X193222265Y-89049148D01*
X193222270Y-89049151D01*
X193395192Y-89126142D01*
X193395197Y-89126144D01*
X193580354Y-89165500D01*
X193580355Y-89165500D01*
X193769644Y-89165500D01*
X193769646Y-89165500D01*
X193954803Y-89126144D01*
X194125407Y-89050184D01*
X194194657Y-89040900D01*
X194257933Y-89070528D01*
X194295147Y-89129662D01*
X194295618Y-89131370D01*
X194312680Y-89195046D01*
X194311017Y-89264896D01*
X194280586Y-89314821D01*
X192746208Y-90849199D01*
X192733951Y-90859020D01*
X192734134Y-90859241D01*
X192728123Y-90864213D01*
X192680772Y-90914636D01*
X192659889Y-90935519D01*
X192659877Y-90935532D01*
X192655621Y-90941017D01*
X192651837Y-90945447D01*
X192619937Y-90979418D01*
X192619936Y-90979420D01*
X192610284Y-90996976D01*
X192599610Y-91013226D01*
X192587329Y-91029061D01*
X192587324Y-91029068D01*
X192568815Y-91071838D01*
X192566245Y-91077084D01*
X192543803Y-91117906D01*
X192538822Y-91137307D01*
X192532521Y-91155710D01*
X192524562Y-91174102D01*
X192524561Y-91174105D01*
X192517271Y-91220127D01*
X192516087Y-91225846D01*
X192504501Y-91270972D01*
X192504500Y-91270982D01*
X192504500Y-91291016D01*
X192502973Y-91310415D01*
X192500127Y-91328386D01*
X192499840Y-91330196D01*
X192503831Y-91372415D01*
X192504225Y-91376583D01*
X192504500Y-91382421D01*
X192504500Y-100437547D01*
X192484815Y-100504586D01*
X192468181Y-100525228D01*
X190629090Y-102364318D01*
X190567767Y-102397803D01*
X190498075Y-102392819D01*
X190442142Y-102350947D01*
X190417725Y-102285483D01*
X190429026Y-102224236D01*
X190503903Y-102063663D01*
X190565063Y-101835408D01*
X190585659Y-101600000D01*
X190565063Y-101364592D01*
X190510907Y-101162476D01*
X190503905Y-101136344D01*
X190503904Y-101136343D01*
X190503903Y-101136337D01*
X190404035Y-100922171D01*
X190389323Y-100901159D01*
X190268494Y-100728597D01*
X190101402Y-100561506D01*
X190101395Y-100561501D01*
X189907834Y-100425967D01*
X189907830Y-100425965D01*
X189693663Y-100326097D01*
X189693659Y-100326096D01*
X189693655Y-100326094D01*
X189465413Y-100264938D01*
X189465403Y-100264936D01*
X189230001Y-100244341D01*
X189229999Y-100244341D01*
X188994596Y-100264936D01*
X188994586Y-100264938D01*
X188881844Y-100295147D01*
X188811994Y-100293484D01*
X188754132Y-100254321D01*
X188726628Y-100190092D01*
X188738215Y-100121190D01*
X188778628Y-100073797D01*
X188798818Y-100059659D01*
X188959657Y-99898820D01*
X189090134Y-99712482D01*
X189186265Y-99506326D01*
X189186269Y-99506317D01*
X189238872Y-99310000D01*
X188275686Y-99310000D01*
X188287641Y-99298045D01*
X188345165Y-99185148D01*
X188364986Y-99060000D01*
X188345165Y-98934852D01*
X188287641Y-98821955D01*
X188275686Y-98810000D01*
X189238872Y-98810000D01*
X189238872Y-98809999D01*
X189186269Y-98613682D01*
X189186265Y-98613673D01*
X189090134Y-98407517D01*
X188959657Y-98221179D01*
X188798820Y-98060342D01*
X188612482Y-97929865D01*
X188554133Y-97902657D01*
X188501694Y-97856484D01*
X188482542Y-97789291D01*
X188502758Y-97722410D01*
X188554129Y-97677895D01*
X188612734Y-97650568D01*
X188799139Y-97520047D01*
X188960047Y-97359139D01*
X189090568Y-97172734D01*
X189186739Y-96966496D01*
X189245635Y-96746692D01*
X189265468Y-96520000D01*
X189245635Y-96293308D01*
X189186739Y-96073504D01*
X189090568Y-95867266D01*
X188960047Y-95680861D01*
X188960045Y-95680858D01*
X188799141Y-95519954D01*
X188612734Y-95389432D01*
X188612728Y-95389429D01*
X188554725Y-95362382D01*
X188502285Y-95316210D01*
X188483133Y-95249017D01*
X188503348Y-95182135D01*
X188554725Y-95137618D01*
X188567489Y-95131666D01*
X188612734Y-95110568D01*
X188799139Y-94980047D01*
X188960047Y-94819139D01*
X189090568Y-94632734D01*
X189186739Y-94426496D01*
X189208743Y-94344375D01*
X189245106Y-94284716D01*
X189307952Y-94254186D01*
X189377328Y-94262480D01*
X189416198Y-94288788D01*
X189561038Y-94433628D01*
X189594523Y-94494951D01*
X189596678Y-94508347D01*
X189604121Y-94579158D01*
X189614326Y-94676256D01*
X189614327Y-94676259D01*
X189672818Y-94856277D01*
X189672821Y-94856284D01*
X189767467Y-95020216D01*
X189851086Y-95113084D01*
X189894129Y-95160888D01*
X190047265Y-95272148D01*
X190047270Y-95272151D01*
X190220192Y-95349142D01*
X190220197Y-95349144D01*
X190405354Y-95388500D01*
X190405355Y-95388500D01*
X190594644Y-95388500D01*
X190594646Y-95388500D01*
X190779803Y-95349144D01*
X190952730Y-95272151D01*
X191105871Y-95160888D01*
X191232533Y-95020216D01*
X191327179Y-94856284D01*
X191385674Y-94676256D01*
X191405460Y-94488000D01*
X191385674Y-94299744D01*
X191327179Y-94119716D01*
X191232533Y-93955784D01*
X191105871Y-93815112D01*
X191089703Y-93803365D01*
X190952734Y-93703851D01*
X190952729Y-93703848D01*
X190779807Y-93626857D01*
X190779802Y-93626855D01*
X190634001Y-93595865D01*
X190594646Y-93587500D01*
X190594645Y-93587500D01*
X190535452Y-93587500D01*
X190468413Y-93567815D01*
X190447771Y-93551181D01*
X189846247Y-92949657D01*
X189222803Y-92326212D01*
X189212980Y-92313950D01*
X189212759Y-92314134D01*
X189207786Y-92308123D01*
X189157364Y-92260773D01*
X189146919Y-92250328D01*
X189136475Y-92239883D01*
X189130989Y-92235627D01*
X189126552Y-92231838D01*
X189121856Y-92227428D01*
X189086456Y-92167194D01*
X189089241Y-92097380D01*
X189094344Y-92084635D01*
X189186739Y-91886496D01*
X189245635Y-91666692D01*
X189265468Y-91440000D01*
X189263867Y-91421705D01*
X189252993Y-91297407D01*
X189245635Y-91213308D01*
X189227318Y-91144948D01*
X189228981Y-91075103D01*
X189259410Y-91025179D01*
X189523788Y-90760801D01*
X189536042Y-90750986D01*
X189535859Y-90750764D01*
X189541866Y-90745792D01*
X189541877Y-90745786D01*
X189572775Y-90712882D01*
X189589227Y-90695364D01*
X189599671Y-90684918D01*
X189610120Y-90674471D01*
X189614379Y-90668978D01*
X189618152Y-90664561D01*
X189650062Y-90630582D01*
X189659715Y-90613020D01*
X189670389Y-90596770D01*
X189682673Y-90580936D01*
X189701180Y-90538167D01*
X189703749Y-90532924D01*
X189726196Y-90492093D01*
X189726197Y-90492092D01*
X189731177Y-90472691D01*
X189737478Y-90454288D01*
X189745438Y-90435896D01*
X189752730Y-90389849D01*
X189753911Y-90384152D01*
X189765500Y-90339019D01*
X189765500Y-90318983D01*
X189767027Y-90299582D01*
X189770160Y-90279804D01*
X189765775Y-90233415D01*
X189765500Y-90227577D01*
X189765500Y-85479500D01*
X189785185Y-85412461D01*
X189837989Y-85366706D01*
X189889500Y-85355500D01*
X189959644Y-85355500D01*
X189959646Y-85355500D01*
X190144803Y-85316144D01*
X190317730Y-85239151D01*
X190470871Y-85127888D01*
X190597533Y-84987216D01*
X190692179Y-84823284D01*
X190750674Y-84643256D01*
X190770460Y-84455000D01*
X190750674Y-84266744D01*
X190692179Y-84086716D01*
X190597533Y-83922784D01*
X190522350Y-83839284D01*
X190492120Y-83776292D01*
X190490500Y-83756312D01*
X190490500Y-83748122D01*
X190492224Y-83732502D01*
X190491939Y-83732475D01*
X190492673Y-83724713D01*
X190490500Y-83655552D01*
X190490500Y-83626036D01*
X190490500Y-83626030D01*
X190489631Y-83619159D01*
X190489173Y-83613332D01*
X190488544Y-83593308D01*
X190487710Y-83566753D01*
X190482119Y-83547510D01*
X190478173Y-83528458D01*
X190475664Y-83508588D01*
X190458504Y-83465247D01*
X190456624Y-83459759D01*
X190443618Y-83414990D01*
X190441342Y-83411142D01*
X190433423Y-83397751D01*
X190424861Y-83380274D01*
X190417487Y-83361650D01*
X190417486Y-83361648D01*
X190390079Y-83323925D01*
X190386888Y-83319066D01*
X190363172Y-83278963D01*
X190363165Y-83278954D01*
X190349006Y-83264795D01*
X190336368Y-83249999D01*
X190324594Y-83233793D01*
X190288688Y-83204089D01*
X190284376Y-83200166D01*
X189780622Y-82696411D01*
X189747138Y-82635090D01*
X189752122Y-82565398D01*
X189793994Y-82509465D01*
X189815900Y-82496349D01*
X189907580Y-82453598D01*
X190101082Y-82318105D01*
X190268105Y-82151082D01*
X190403600Y-81957578D01*
X190503429Y-81743492D01*
X190503432Y-81743486D01*
X190560636Y-81530000D01*
X189663686Y-81530000D01*
X189689493Y-81489844D01*
X189730000Y-81351889D01*
X189730000Y-81208111D01*
X189689493Y-81070156D01*
X189663686Y-81030000D01*
X190560636Y-81030000D01*
X190560635Y-81029999D01*
X190503432Y-80816513D01*
X190503428Y-80816502D01*
X190496621Y-80801904D01*
X190486129Y-80732827D01*
X190514649Y-80669043D01*
X190573126Y-80630804D01*
X190609003Y-80625500D01*
X193812770Y-80625500D01*
X193879809Y-80645185D01*
G37*
%TD.AperFunction*%
%TA.AperFunction,Conductor*%
G36*
X185613039Y-99519685D02*
G01*
X185658794Y-99572489D01*
X185670000Y-99624000D01*
X185670000Y-99876000D01*
X185650315Y-99943039D01*
X185597511Y-99988794D01*
X185546000Y-100000000D01*
X184220001Y-100000000D01*
X184220001Y-100124591D01*
X184200316Y-100191630D01*
X184147512Y-100237385D01*
X184106809Y-100248119D01*
X183914590Y-100264937D01*
X183914589Y-100264937D01*
X183814124Y-100291855D01*
X183744274Y-100290191D01*
X183694352Y-100259761D01*
X183691590Y-100256999D01*
X183658105Y-100195676D01*
X183663089Y-100125984D01*
X183704961Y-100070051D01*
X183708149Y-100067742D01*
X183719139Y-100060047D01*
X183880047Y-99899139D01*
X184010568Y-99712734D01*
X184076383Y-99571593D01*
X184122554Y-99519156D01*
X184188764Y-99500000D01*
X185546000Y-99500000D01*
X185613039Y-99519685D01*
G37*
%TD.AperFunction*%
%TA.AperFunction,Conductor*%
G36*
X184198926Y-94610680D02*
G01*
X184201753Y-94613419D01*
X184220000Y-94631666D01*
X185546000Y-94631666D01*
X185613039Y-94651351D01*
X185658794Y-94704155D01*
X185670000Y-94755666D01*
X185670000Y-95956665D01*
X185919972Y-95956665D01*
X185919986Y-95956664D01*
X186022696Y-95946171D01*
X186046493Y-95938286D01*
X186116322Y-95935883D01*
X186176364Y-95971613D01*
X186207558Y-96034133D01*
X186209500Y-96055991D01*
X186209500Y-96525148D01*
X186189815Y-96592187D01*
X186137011Y-96637942D01*
X186067853Y-96647886D01*
X186046498Y-96642854D01*
X186022802Y-96635002D01*
X186022795Y-96635000D01*
X185920010Y-96624500D01*
X184919998Y-96624500D01*
X184919980Y-96624501D01*
X184817203Y-96635000D01*
X184817200Y-96635001D01*
X184650668Y-96690185D01*
X184650663Y-96690187D01*
X184501342Y-96782289D01*
X184377286Y-96906345D01*
X184371845Y-96915167D01*
X184319895Y-96961888D01*
X184250932Y-96973107D01*
X184186851Y-96945260D01*
X184147998Y-96887189D01*
X184146535Y-96817974D01*
X184165635Y-96746692D01*
X184185468Y-96520000D01*
X184165635Y-96293308D01*
X184106739Y-96073504D01*
X184010568Y-95867266D01*
X183880047Y-95680861D01*
X183880045Y-95680858D01*
X183719141Y-95519954D01*
X183532734Y-95389432D01*
X183532728Y-95389429D01*
X183474725Y-95362382D01*
X183422285Y-95316210D01*
X183403133Y-95249017D01*
X183423348Y-95182135D01*
X183474725Y-95137618D01*
X183487489Y-95131666D01*
X184220001Y-95131666D01*
X184220001Y-95256652D01*
X184230494Y-95359363D01*
X184285641Y-95525785D01*
X184285643Y-95525790D01*
X184377684Y-95675011D01*
X184501654Y-95798981D01*
X184650875Y-95891022D01*
X184650880Y-95891024D01*
X184817302Y-95946171D01*
X184817309Y-95946172D01*
X184920019Y-95956665D01*
X185169999Y-95956665D01*
X185170000Y-95956664D01*
X185170000Y-95131666D01*
X184220001Y-95131666D01*
X183487489Y-95131666D01*
X183532734Y-95110568D01*
X183719139Y-94980047D01*
X183880047Y-94819139D01*
X184010568Y-94632734D01*
X184010571Y-94632726D01*
X184012496Y-94629978D01*
X184067073Y-94586352D01*
X184136571Y-94579158D01*
X184198926Y-94610680D01*
G37*
%TD.AperFunction*%
%TA.AperFunction,Conductor*%
G36*
X180202540Y-81925185D02*
G01*
X180248295Y-81977989D01*
X180259501Y-82029500D01*
X180259501Y-82177876D01*
X180265908Y-82237483D01*
X180316202Y-82372328D01*
X180316206Y-82372335D01*
X180402452Y-82487544D01*
X180402455Y-82487547D01*
X180517664Y-82573793D01*
X180517671Y-82573797D01*
X180562618Y-82590561D01*
X180652517Y-82624091D01*
X180712127Y-82630500D01*
X180754491Y-82630499D01*
X180821529Y-82650182D01*
X180867285Y-82702985D01*
X180872261Y-82717482D01*
X180872291Y-82717472D01*
X180874758Y-82724252D01*
X180874759Y-82724255D01*
X180887000Y-82757887D01*
X180901025Y-82796424D01*
X180925185Y-82869331D01*
X180928236Y-82875874D01*
X180928182Y-82875898D01*
X180931470Y-82882688D01*
X180931521Y-82882663D01*
X180934761Y-82889113D01*
X180934762Y-82889114D01*
X180934763Y-82889117D01*
X180953942Y-82918277D01*
X180976965Y-82953283D01*
X181017287Y-83018655D01*
X181021766Y-83024319D01*
X181021719Y-83024356D01*
X181026482Y-83030202D01*
X181026528Y-83030164D01*
X181031173Y-83035700D01*
X181087018Y-83088386D01*
X181553282Y-83554650D01*
X181586767Y-83615973D01*
X181589129Y-83653137D01*
X181574532Y-83819996D01*
X181574532Y-83820001D01*
X181594364Y-84046686D01*
X181594366Y-84046697D01*
X181653258Y-84266488D01*
X181653261Y-84266497D01*
X181749431Y-84472732D01*
X181749432Y-84472734D01*
X181879954Y-84659141D01*
X182040858Y-84820045D01*
X182040861Y-84820047D01*
X182227266Y-84950568D01*
X182285275Y-84977618D01*
X182337714Y-85023791D01*
X182356866Y-85090984D01*
X182336650Y-85157865D01*
X182285275Y-85202382D01*
X182227267Y-85229431D01*
X182227265Y-85229432D01*
X182040858Y-85359954D01*
X181879954Y-85520858D01*
X181749432Y-85707265D01*
X181749431Y-85707267D01*
X181653261Y-85913502D01*
X181653258Y-85913511D01*
X181594366Y-86133302D01*
X181594364Y-86133313D01*
X181584812Y-86242500D01*
X181574532Y-86360000D01*
X181594364Y-86586686D01*
X181594365Y-86586691D01*
X181594366Y-86586697D01*
X181612680Y-86655048D01*
X181611017Y-86724897D01*
X181580586Y-86774821D01*
X180392228Y-87963181D01*
X180330905Y-87996666D01*
X180304547Y-87999500D01*
X180245354Y-87999500D01*
X180212897Y-88006398D01*
X180060197Y-88038855D01*
X180060192Y-88038857D01*
X179887270Y-88115848D01*
X179887265Y-88115851D01*
X179734129Y-88227111D01*
X179607466Y-88367785D01*
X179512821Y-88531715D01*
X179512818Y-88531722D01*
X179466813Y-88673313D01*
X179454326Y-88711744D01*
X179434540Y-88900000D01*
X179449131Y-89038832D01*
X179454327Y-89088261D01*
X179455678Y-89094617D01*
X179452768Y-89095235D01*
X179454249Y-89152289D01*
X179418013Y-89212028D01*
X179355231Y-89242692D01*
X179285838Y-89234546D01*
X179246725Y-89208134D01*
X178992960Y-88954369D01*
X178959475Y-88893046D01*
X178957323Y-88879668D01*
X178939674Y-88711744D01*
X178881179Y-88531716D01*
X178786533Y-88367784D01*
X178659871Y-88227112D01*
X178659870Y-88227111D01*
X178506734Y-88115851D01*
X178506729Y-88115848D01*
X178333807Y-88038857D01*
X178333802Y-88038855D01*
X178188001Y-88007865D01*
X178148646Y-87999500D01*
X177959354Y-87999500D01*
X177926897Y-88006398D01*
X177774197Y-88038855D01*
X177774192Y-88038857D01*
X177601270Y-88115848D01*
X177601265Y-88115851D01*
X177448129Y-88227111D01*
X177321466Y-88367785D01*
X177226821Y-88531715D01*
X177226818Y-88531722D01*
X177180813Y-88673313D01*
X177168326Y-88711744D01*
X177148540Y-88900000D01*
X177168326Y-89088256D01*
X177168327Y-89088259D01*
X177226818Y-89268277D01*
X177226821Y-89268284D01*
X177321467Y-89432216D01*
X177438191Y-89561851D01*
X177448129Y-89572888D01*
X177601265Y-89684148D01*
X177601270Y-89684151D01*
X177774192Y-89761142D01*
X177774197Y-89761144D01*
X177959354Y-89800500D01*
X178018548Y-89800500D01*
X178085587Y-89820185D01*
X178106229Y-89836819D01*
X181484863Y-93215454D01*
X181494688Y-93227717D01*
X181494909Y-93227535D01*
X181499880Y-93233544D01*
X181525883Y-93257961D01*
X181550301Y-93280892D01*
X181571195Y-93301786D01*
X181576677Y-93306039D01*
X181581109Y-93309823D01*
X181615084Y-93341728D01*
X181615088Y-93341730D01*
X181621396Y-93346313D01*
X181620633Y-93347363D01*
X181664229Y-93391206D01*
X181678888Y-93459521D01*
X181667612Y-93502729D01*
X181653260Y-93533506D01*
X181653258Y-93533511D01*
X181594366Y-93753302D01*
X181594364Y-93753313D01*
X181574532Y-93979998D01*
X181574532Y-93980001D01*
X181594364Y-94206686D01*
X181594366Y-94206697D01*
X181653258Y-94426488D01*
X181653261Y-94426497D01*
X181749431Y-94632732D01*
X181749432Y-94632734D01*
X181879954Y-94819141D01*
X182040858Y-94980045D01*
X182048029Y-94985066D01*
X182227266Y-95110568D01*
X182232662Y-95113084D01*
X182285275Y-95137618D01*
X182337714Y-95183791D01*
X182356866Y-95250984D01*
X182336650Y-95317865D01*
X182285275Y-95362382D01*
X182227267Y-95389431D01*
X182227265Y-95389432D01*
X182040861Y-95519952D01*
X181977728Y-95583084D01*
X181916404Y-95616568D01*
X181846713Y-95611582D01*
X181802367Y-95583082D01*
X179447002Y-93227717D01*
X177046819Y-90827533D01*
X177013334Y-90766210D01*
X177010500Y-90739852D01*
X177010500Y-90107737D01*
X177012224Y-90092123D01*
X177011938Y-90092096D01*
X177012672Y-90084333D01*
X177010500Y-90015203D01*
X177010500Y-89985651D01*
X177010500Y-89985650D01*
X177009629Y-89978759D01*
X177009172Y-89972945D01*
X177007709Y-89926372D01*
X177002122Y-89907144D01*
X176998174Y-89888084D01*
X176995664Y-89868208D01*
X176978507Y-89824875D01*
X176976619Y-89819359D01*
X176963619Y-89774612D01*
X176953418Y-89757363D01*
X176944860Y-89739894D01*
X176937486Y-89721268D01*
X176937483Y-89721264D01*
X176937483Y-89721263D01*
X176910098Y-89683571D01*
X176906890Y-89678687D01*
X176883172Y-89638582D01*
X176883163Y-89638571D01*
X176869005Y-89624413D01*
X176856370Y-89609620D01*
X176844593Y-89593412D01*
X176808693Y-89563713D01*
X176804381Y-89559790D01*
X176559412Y-89314821D01*
X176525928Y-89253499D01*
X176527319Y-89195048D01*
X176527320Y-89195046D01*
X176545635Y-89126692D01*
X176565468Y-88900000D01*
X176565467Y-88899994D01*
X176559801Y-88835230D01*
X176545635Y-88673308D01*
X176486739Y-88453504D01*
X176390568Y-88247266D01*
X176271168Y-88076744D01*
X176260045Y-88060858D01*
X176099141Y-87899954D01*
X175912734Y-87769432D01*
X175912728Y-87769429D01*
X175885038Y-87756517D01*
X175854724Y-87742381D01*
X175802285Y-87696210D01*
X175783133Y-87629017D01*
X175803348Y-87562135D01*
X175854725Y-87517618D01*
X175912734Y-87490568D01*
X176099139Y-87360047D01*
X176260047Y-87199139D01*
X176390568Y-87012734D01*
X176486739Y-86806496D01*
X176545635Y-86586692D01*
X176565468Y-86360000D01*
X176545635Y-86133308D01*
X176486739Y-85913504D01*
X176390568Y-85707266D01*
X176260047Y-85520861D01*
X176260045Y-85520858D01*
X176099143Y-85359956D01*
X176091305Y-85354468D01*
X176074535Y-85342725D01*
X176030912Y-85288149D01*
X176023719Y-85218650D01*
X176055241Y-85156296D01*
X176115471Y-85120882D01*
X176132404Y-85117861D01*
X176167483Y-85114091D01*
X176302331Y-85063796D01*
X176417546Y-84977546D01*
X176503796Y-84862331D01*
X176554091Y-84727483D01*
X176560500Y-84667873D01*
X176560499Y-82972128D01*
X176554091Y-82912517D01*
X176545363Y-82889117D01*
X176503797Y-82777671D01*
X176503793Y-82777664D01*
X176417547Y-82662455D01*
X176381752Y-82635659D01*
X176339955Y-82604369D01*
X176311693Y-82583212D01*
X176269823Y-82527278D01*
X176264839Y-82457587D01*
X176298324Y-82396265D01*
X176332846Y-82361744D01*
X176752772Y-81941819D01*
X176814095Y-81908334D01*
X176840453Y-81905500D01*
X180135501Y-81905500D01*
X180202540Y-81925185D01*
G37*
%TD.AperFunction*%
%TA.AperFunction,Conductor*%
G36*
X186576746Y-88745467D02*
G01*
X186632680Y-88787338D01*
X186657097Y-88852802D01*
X186656941Y-88872454D01*
X186654532Y-88899994D01*
X186654532Y-88900002D01*
X186673947Y-89121922D01*
X186660180Y-89190422D01*
X186611565Y-89240605D01*
X186543536Y-89256538D01*
X186477693Y-89233162D01*
X186462738Y-89220410D01*
X186338344Y-89096016D01*
X186338341Y-89096014D01*
X186335339Y-89094162D01*
X186333713Y-89092354D01*
X186332677Y-89091535D01*
X186332817Y-89091357D01*
X186288617Y-89042213D01*
X186277397Y-88973250D01*
X186305243Y-88909169D01*
X186335344Y-88883087D01*
X186338656Y-88881045D01*
X186445735Y-88773965D01*
X186507054Y-88740483D01*
X186576746Y-88745467D01*
G37*
%TD.AperFunction*%
%TA.AperFunction,Conductor*%
G36*
X184165001Y-84640185D02*
G01*
X184210756Y-84692989D01*
X184221320Y-84757105D01*
X184220000Y-84770019D01*
X184220000Y-84895000D01*
X186646746Y-84895000D01*
X186649122Y-84893702D01*
X186667302Y-84895000D01*
X186671361Y-84895000D01*
X186671361Y-84895289D01*
X186718815Y-84898678D01*
X186774753Y-84940543D01*
X186774761Y-84940553D01*
X186802455Y-84977547D01*
X186917664Y-85063793D01*
X186917671Y-85063797D01*
X186940499Y-85072311D01*
X187052517Y-85114091D01*
X187087596Y-85117862D01*
X187152144Y-85144599D01*
X187191993Y-85201991D01*
X187194488Y-85271816D01*
X187158836Y-85331905D01*
X187145464Y-85342725D01*
X187120858Y-85359954D01*
X186959954Y-85520858D01*
X186835193Y-85699038D01*
X186780616Y-85742663D01*
X186711118Y-85749857D01*
X186648763Y-85718334D01*
X186613349Y-85658105D01*
X186610260Y-85615312D01*
X186619999Y-85519985D01*
X186620000Y-85519973D01*
X186620000Y-85395000D01*
X184220001Y-85395000D01*
X184220001Y-85519986D01*
X184227961Y-85597898D01*
X184215191Y-85666591D01*
X184167311Y-85717475D01*
X184104603Y-85734500D01*
X184094188Y-85734500D01*
X184027149Y-85714815D01*
X183992613Y-85681623D01*
X183880045Y-85520858D01*
X183719141Y-85359954D01*
X183532734Y-85229432D01*
X183532728Y-85229429D01*
X183474725Y-85202382D01*
X183422285Y-85156210D01*
X183403133Y-85089017D01*
X183423348Y-85022135D01*
X183474725Y-84977618D01*
X183532734Y-84950568D01*
X183719139Y-84820047D01*
X183782081Y-84757105D01*
X183882368Y-84656819D01*
X183943691Y-84623334D01*
X183970049Y-84620500D01*
X184097962Y-84620500D01*
X184165001Y-84640185D01*
G37*
%TD.AperFunction*%
%TD*%
M02*
