%TF.GenerationSoftware,KiCad,Pcbnew,7.0.8-7.0.8~ubuntu23.04.1*%
%TF.CreationDate,2023-10-19T21:44:50+04:00*%
%TF.ProjectId,async_counter,6173796e-635f-4636-9f75-6e7465722e6b,rev?*%
%TF.SameCoordinates,Original*%
%TF.FileFunction,Soldermask,Top*%
%TF.FilePolarity,Negative*%
%FSLAX46Y46*%
G04 Gerber Fmt 4.6, Leading zero omitted, Abs format (unit mm)*
G04 Created by KiCad (PCBNEW 7.0.8-7.0.8~ubuntu23.04.1) date 2023-10-19 21:44:50*
%MOMM*%
%LPD*%
G01*
G04 APERTURE LIST*
G04 Aperture macros list*
%AMRoundRect*
0 Rectangle with rounded corners*
0 $1 Rounding radius*
0 $2 $3 $4 $5 $6 $7 $8 $9 X,Y pos of 4 corners*
0 Add a 4 corners polygon primitive as box body*
4,1,4,$2,$3,$4,$5,$6,$7,$8,$9,$2,$3,0*
0 Add four circle primitives for the rounded corners*
1,1,$1+$1,$2,$3*
1,1,$1+$1,$4,$5*
1,1,$1+$1,$6,$7*
1,1,$1+$1,$8,$9*
0 Add four rect primitives between the rounded corners*
20,1,$1+$1,$2,$3,$4,$5,0*
20,1,$1+$1,$4,$5,$6,$7,0*
20,1,$1+$1,$6,$7,$8,$9,0*
20,1,$1+$1,$8,$9,$2,$3,0*%
G04 Aperture macros list end*
%ADD10RoundRect,0.250000X0.450000X-0.325000X0.450000X0.325000X-0.450000X0.325000X-0.450000X-0.325000X0*%
%ADD11R,1.600000X1.600000*%
%ADD12O,1.600000X1.600000*%
%ADD13R,1.700000X1.700000*%
%ADD14O,1.700000X1.700000*%
G04 APERTURE END LIST*
D10*
%TO.C,D4*%
X185420000Y-85145000D03*
X185420000Y-83095000D03*
%TD*%
%TO.C,D2*%
X185420000Y-94881666D03*
X185420000Y-92831666D03*
%TD*%
%TO.C,D3*%
X185420000Y-90013333D03*
X185420000Y-87963333D03*
%TD*%
D11*
%TO.C,U1*%
X175260000Y-83820000D03*
D12*
X175260000Y-86360000D03*
X175260000Y-88900000D03*
X175260000Y-91440000D03*
X175260000Y-93980000D03*
X175260000Y-96520000D03*
X175260000Y-99060000D03*
X182880000Y-99060000D03*
X182880000Y-96520000D03*
X182880000Y-93980000D03*
X182880000Y-91440000D03*
X182880000Y-88900000D03*
X182880000Y-86360000D03*
X182880000Y-83820000D03*
%TD*%
D11*
%TO.C,U2*%
X187960000Y-83820000D03*
D12*
X187960000Y-86360000D03*
X187960000Y-88900000D03*
X187960000Y-91440000D03*
X187960000Y-93980000D03*
X187960000Y-96520000D03*
X187960000Y-99060000D03*
X195580000Y-99060000D03*
X195580000Y-96520000D03*
X195580000Y-93980000D03*
X195580000Y-91440000D03*
X195580000Y-88900000D03*
X195580000Y-86360000D03*
X195580000Y-83820000D03*
%TD*%
D10*
%TO.C,D1*%
X185420000Y-99750000D03*
X185420000Y-97700000D03*
%TD*%
D13*
%TO.C,J2*%
X181610000Y-101600000D03*
D14*
X184150000Y-101600000D03*
X186690000Y-101600000D03*
X189230000Y-101600000D03*
%TD*%
D13*
%TO.C,J1*%
X181610000Y-81280000D03*
D14*
X184150000Y-81280000D03*
X186690000Y-81280000D03*
X189230000Y-81280000D03*
%TD*%
M02*
